<svg viewBox="0 0 2273 533">
    <g transform="translate(-2000 -200)">
    <g fill="hotpink">
        <path d="M2009 331h1v-1 1h1s1 0 0 0v2l1-1-1 1-1 2v1l1 1h1-1v-4a6 6 0 0 0 2-1h-2v1-1l1-1h-1v-1h-1v1h-1Zm0 0Z" />
        <path
            d="M2009 331h1v2a6 6 0 0 0-2-2v1l1 1h1v4h-1 1v-4h-1v-1h-1c0-1 0 0 0 0a6 6 0 0 1 2 1 2 2 0 0 0 0-2h-1Zm3 3h1v1l-1 1-1-1 1-1h-1v1l1 1 1-1v-1h-2 1Z" />
        <path d="m2012 335 1-1v1h-1v1-2 2-1h1v-1h-1v1Z" />
        <path
            d="m2012 337 1-1h1v-1a6 6 0 0 1 0-2v3l1-1v-1a5 5 0 0 1 0-1h1v2l1-1-1 1h1-2l-1 1h2v1-1h-2l1-1h2-1l1-1-2 1h1v-2l-1 1v1l-1 1v-3 3h-1l-1 1Z" />
        <path d="m2012 338 2-2-2 1v1Zm-9-4h1l1 1-1-1v-1l1 1 1 2v-3 3l1 1h2-2l-1-1v-3 3l-1-1v-1l-1-1 1 2-2-1Z" />
        <path
            d="m2003 334 1 1h-1 1l2 1h-2v1l1-1h1l1 1h1l1 1v1-1l-1-1h-1l-1-1h-1a14 14 0 0 1-1 1v-1a17 17 0 0 1 2 0l-2-1h-1 1l-1-1Zm5 0v2h1a8 8 0 0 0 0-1v-1h-2 2v2h-1v-2Z" />
        <path d="M2008 334v1l1 1v-2h-1 1v2-1h-1v-1Zm-4 6c-1-1 0 0 0 0h4l1-1a213 213 0 0 1-3 1h-1l-1-1v1Z" />
        <path
            d="M2004 340h2l-1 1h-2 1l-1 1h2-1l1 1v-1l1-1v2-2l1-1h1l1-1-2 1h-1v3-2h-1v2-1h-2 1v-1h-1 3a5 5 0 0 0-2-1Zm5-1h1v4h-1l-1 1h1v-1h1v1-1l-1 1h-1l1-1h1v-4h-1Z" />
        <path
            d="m2010 344-1 1c0 1 0 0 0 0h1v1h1l-1-1h2-1v-1h-1v-1l1 1h1l-2-1 2 1h-1l-1-1v1h1a4 4 0 0 1 0 1l-1-1v2-1a1 1 0 0 1-1 0h1v-1Zm0-1v-3h1l1-1-1 1h-1a24 24 0 0 1 0 3Zm2-5v1a26 26 0 0 0 2 1h2l1-1v1h-2v1h2-1l1 1-1-1v2-2h-1v2-1h-1a16 16 0 0 0 0-2v2l1 1v-2h-1 1l1 1v1-2l1 1-1-1h1-2l-1-1h3v-1l-1 1h-3l-1-1v-2 1Z" />
        <path d="m2012 339 1 1 1 1v-1h-1l-1-1Zm-1 1v2h2v-1l-2-1 2 1v1h-1v-1l-1-1Z" />
        <path d="M2012 341v1h1v-1h-1 1v1h-1v-1Zm1-3 1-1 1 1-1 1-1-1 1 1h1v-2h-1l-1 1Z" />
        <path d="M2013 338h2-2 1v1-1h1-2Zm-7 0h1-1v1h1v-1h1-1v-1l-1 1Z" />
        <path d="M2005 338h1v-1h1v1h1l-1-1h-1l-1 1Zm0 0 1 1h1v-1h1l-1 1h-1v-1h-1Zm3 3 1-1v2h-1v-1 2-1h1v-2l-1 1Z" />
        <path d="M2008 342v-1h1v1h-1 1v-1h-1v1Zm-478-59v1-1h1l-1 1v1-1l1-1h-1v1-1Zm0 0Z" />
        <path d="M1530 283v1a1 1 0 0 0 0-1h-1l1 1v1-2h-1l1 1v-1Zm0 1h1-1 1-1Zm0 0h1-1 1-1Z" />
        <path d="M1530 285h1v-1h1-1 1-1 1-1 1-1 1-1 1-2l1 1h-1Z" />
        <path d="m1530 285 1-1a6 6 0 0 1-1 1Zm-2-1h1l1 1-1-1h-1Z" />
        <path
            d="M1528 284h1-1 1l-1 1 1-1v1h1l-1-1h-1 1-1 1-1Zm1 0h1-1 1-1Zm0 0h1-1 1-1Zm0 1h-1 2-2 1Zm-1 0h1-1v1h1-1 1v-1h1-1v1h-1 1c-1 0 0 0 0 0v-1h-1Zm2 0v1-1Zm0 1v1-1 1-1h1-1 1-1v1-1 1-1Zm0 0v-1 1Zm0-1h2-1v1h1s0-1 0 0v-1l-1 1h1-1v-1 1-1 1h1-1 1v-1h-1 1-2Zm0 0h1-1Z" />
        <path d="M1530 285v1h1v-1h-1l1 1v-1 1h-1v-1Z" />
        <path
            d="M1530 285v1h1v-1h-1v1-1 1-1Zm1 0Zm0 0Zm-2 0Zm0 0h1-1Zm0 0h1-1Zm0 1 1-1v1h-1 1v-1h-1v1h1v-1h-1v1h1-1Z" />
    </g>
    <g fill="yellow">
        <path
            d="M1530 286v-1 1h-1 1-1 1Zm276-178v-1h-1 2a4 4 0 0 0 1 1l-1-1h-2l1 1c0 1 0 1 0 0Zm2 0 1 1v-1 1l1 1v-1l1 1 1 1a2 2 0 0 1-1-1v-1h-1v1-1l-1-1v-1 2l-1-1Z" />
    </g>
    </g>
    <g fill="#BC955B">
        <path d="M1806 109h2l1 1h-2v1l1-1h2v1-1h-3 2l-1-1h-1l-1-1v1Z" />
        <path d="m1810 110-1 1h3-3 1v-1Zm-4-3v1h1v1-2h-1v1h1-1v-1Zm7-2v1l1-1v-1h-1v1l1-1h-1l1 1h-1v-1 1Z" />
        <path d="M1813 106a8 8 0 0 1 1-1c1 0 0 0 0 0v-2h-1 1-1l1 2-1 1h1-1Z" />
        <path
            d="m1812 104 2-1h-1l-1 1Zm0 0 1 2v2l-1-2h-1v1h1v1h1v1-1l-1-1v-1h-1 1l1 2v-2l-1-2Zm1 5 1-1 1-1v-1l-1 1h-1v1l1-2h-1v2l1-1h1-1l-1 1v1Z" />
        <path d="M1812 111h1v-2l-1-1v1h1-1v-1s-1 0 0 0v1l1 1v1-1l-1 1Zm1 0v-1l1-1v-1l-1 1h1-1v2Z" />
        <path
            d="M1813 111h2v-2s1 0 0 0v2l1-1-1 1 1-2h-1v2h-1l-1-1v1Zm3-1 1-1v-1l-1 2h1l1-1-2 1h1v-2l-1 1v1Zm2-1h1v-1h2l-1 1v1h-2 2l1-1v-1h-2l-1 1Z" />
        <path
            d="M1818 110h-1l1 1h-1l-1-1-1 1h1-2v2h2-1v1h2l1-1v1h-2 3l-1-1h-1l-1 1-1-1v1l1-1h1-3v-1l1-1h1v1l1-1h-2 4l-1-1h-1 1Z" />
        <path
            d="M1813 113h1v1l1 1v-1l1 1v1h1l-1-1h1l1 1v1h2-2v-1a2 2 0 0 0-1-1h-1c0-1 0 0 0 0v1-2h-1v1-1a2 2 0 0 0-1-1h-1Z" />
        <path
            d="m1816 114 1 1h1l1 1 1 1v-1l-1-1h-2l-1-1Zm-11 2 1-1 1-1h2l-1-1h-1 3-1v-1 1h1l1-1 1-1h-1v1h-2v1h1-3a3 3 0 0 0 1 0l1 1v-1l-2 1h-2v1s0 1 0 0v1Z" />
        <path d="M1805 116h2l2-2-1 1v1h1v-1l1-1v-1 2-1l1-1h-1v1l-1 1-1 1 1-1v-1l-2 2-2-1v1Z" />
        <path
            d="m1810 115 1-2h1v2h-1v1l1-1v1h-1v1h1v-1 2l-1 1v1a14 14 0 0 0 1 1l1-1v-4h-1v1l1 1v2l-1 1-1-2h1v-3l-1 1 1-1v-1h-1 1v-1h1v-1h-1l-1-1v1l-1 2Zm0 0v-1 1Z" />
        <path
            d="m1813 116 1 2v-1a8 8 0 0 0-1-1v-1 1l1-1h-1v-2a1 1 0 0 0 0 2h1-1v1l1 1v1l-1-2Zm-8-1h2v-1 1h-2v1h1v-1h1v-1h-1v1h-1Zm6 4h1v-1 2-1h-1l1 1 1-1-1-1v1h-1 1-1Zm8-10h1v-1a2 2 0 0 0 0 1h-1c-1 0-1 0 0 0h1v-1h-1v1c-1 0 0 0 0 0Zm-1 7v1h1v-2h-1v1h1v1-1h-1Zm-485 156 1-2 2 1 1 1h-1a6 6 0 0 0 0 2h1a6 6 0 0 1 0-2v-1l-3-2v1l-1 2Zm3 2 1 3h1v-1l1-2v2l-1 1v3h1a6 6 0 0 1 1-2l-1 2 1 3v-1a4 4 0 0 1 0-3v-1a1 1 0 0 0-1 0l-1 2 1-1-1-1 1-1v-2l1-1h-1l-1 1-1 2h1l-1-3h-1Z" />
        <path
            d="M1333 273a10 10 0 0 0 2 2l1 1 1 2v-1l-3-1h-1a1 1 0 0 0 0 1h1l1 1 2 1 1 1c0 1 0 0 0 0v-1l-1-1-2-1h-2 1l3 1-1-2v-1l-1-1-2-2v1Z" />
        <path
            d="M1338 280h-1l-1-1a1 1 0 0 0-1 1h1l2 1v1h1v1c0-1 0 0 0 0v-2h-1l-1-1h-1 2Zm-4-9v2h1v1h1v-2l-1-1h-1c0-1 0 0 0 0h1v1c1 0 1 0 0 0v2h1l-1-1-1-1v-1c0-1 0-1 0 0Zm14 2v3l1-1h1v-3l-2 1h2v-1 2h-1v1h-1l1-2h-1Z" />
        <path d="m1348 277 2-1 1-1v-3c-1 0 0 0 0 0l-1 3a10 10 0 0 0-2 1v1Z" />
        <path
            d="m1348 273 3-1s0-1 0 0h-3v1Zm0 0-1 3-1 1-1 1h1l-1-3v-1h-1v6l-1 1h1l1-1v-4a8 8 0 0 0-1-2l1 1v3l1 1 1-2v-1l1-3c0-1 0-1 0 0Z" />
        <path
            d="m1345 281 1-2h4l-1-1h-3v1l1-1 1-1v-1 1-1l-2 2v1h3c0-1 0-1 0 0v-1l-1 1h-2l-2 2h1Zm-5 2h2l1-1v-4 3h1v-1l-1-2h-1v5l-2-1v1Z" />
        <path
            d="m1343 283 1-1h2v-1c1 0 0 0 0 0h-2 2-2l-1 1-1 1h1Zm-1 0 1 2h1l1 1 1-1 1-1h1-1l-1 1v1h2v-1h-2v1l2-2v-1h-1l-2 2h-2v-2h-1Zm6 2v1l1-1 1-1h2v-1l-3 3h3-3l3-2v-1h-1l-1 1-1 1h-1v1-1Zm4 2 1-1h2l1 1 1 1v-1 1h-1l-1 1h-1l-1-1-1-1h-1l3 2h2l1-1h1l-1-1-1-1-1-1-1 1h-2v1Z" />
        <path
            d="M1352 287h-3l2 2-1 1v-1l-1-1-1-1-2-1v1l1 1-1-1a3 3 0 0 0-3-1l-1 1v2l2 1c1 0 2 0 1 1l-2-1h-1l1 2h2l1 1h2l-1 1-3-2v1l3 1h1v-1h-1l-1-1-2-1-1-1 2 1h1v-1h-1l-2-1-1-1 1-1 1-1h1l1 2a1 1 0 0 0 1 0l-1-2v1h1l1 1 2 2h1v-1l-1-1-1-1h3c0 1 0 0 0 0Z" />
        <path
            d="M1339 288h2v3l-1 1h1c0 1 0 0 0 0l1-1v-1 6l2-3h-1l1 2v4l2 2 1-1-2-1-1-1 1-1-1-2v-2h-1l-1 3 1-3v-3h-1l-1 2 1-2a3 3 0 0 0-1-2v-1h-2v1Z" />
        <path
            d="m1344 293 1 2 1 1 1 1v4l1-3-1-1-1-1-1-1v-1l-1-2v1Zm-20-10 3-1 2 1 3 1h1l-1-1-2-2 2 1 1 2h3l-1-1s-1-1 0 0l1 1h2l1-1c1 0 0 0 0 0h-1l-1 1-2-1v-1h-1v1l1 1-2-1-1-1c-1-1-1-2-2-1l1 1 1 2v-1h-2l-2-1-2-1-2 1v1Z" />
        <path
            d="m1324 283 3 2 6-1c-1 0-5 3-3 3h1l1-1 2-1h2v-1l-2 2h-1l1 1v-1l2-1v-1h-2l-3 2-1 1v-1h1l2-2c-2-1-4 0-6 1l-3-2c0-1 0 0 0 0Z" />
        <path
            d="m1334 287 2-2h2l1 2-1 1h-2l-1 1v1h2v-1l-1 1-2 1h-2v1h3v-1l-4 4-1 1v3l3-1 1-1v-3l2-2s0-1 0 0l-2 2v1l-1 2h-1l-2 1v1-3l2-1 1-1c1 0 2-1 2-3h-2l-1 1v-1h4l1-2h-2 2l1-1 1-1v-1l-1-1h-2l-2 2c-1 0 0 0 0 0Zm0 0v-1 1Z" />
        <path
            d="M1336 292v3l1 1v-6l1-1h-1v2l1 1a1 1 0 0 0 1 0v-5l-1 2v3-3h-1v1l-1 2 1 2v2l-1-4Zm-11-9a11 11 0 0 1 2-1v1l2 1v-1l-1 1h-2v-1h-1l1 1h3v-1a5 5 0 0 1-2-1h-1l-1 1Zm6 12v1l1-1a4 4 0 0 1 1 0v2-1l-1 1h-1v-2 3l1-1h1v-2c1 0 0 0 0 0a5 5 0 0 0-2 0v1-1Zm22-8h2l1 1v-1a4 4 0 0 0-2 1l-1-1c0-1 0 0 0 0-1 0-1 0 0 0l1 1h2v-1h-1v-1h-2v1Zm-8 10v1c-1 0-1 0 0 0v1l1 1 1-1v-2h-1l-1-1v1h1v2l-1-1v-1Zm-112-69 2 1v-4 3s0 1 0 0l2-1-1 1-1 1v2h1l3-2-3 2-1 1v5l1 1 1 1h1l-1-1v-1h-1v-5l1-1 2-2h-1l-3 2h1v-2l1-2c1 0 1 0 0 0l-2 1h1l-1-3v3c-1 0-1-2-2-1-1 0 0 1 0 0v1Zm0 0v-1 1Z" />
        <path
            d="M1233 227c-1 1 0 1 1 2l1 2-4-3v1l1 1 2 2 1 3v2l-2 2c-1 0 0 0 0 0l2-1v-1a22 22 0 0 0 0-5l-2-1-1-1-1-1 4 2a3 3 0 0 0-1-3l-1-1Zm5 7a10 10 0 0 1 2-1v2h-1l-2 1h1v-3h-1v3l1 1 2-1v-3l-1-1-2 1 1 1Z" />
        <path
            d="m1238 234 1-1v2a5 5 0 0 0-1 0v1-2c0-1 0-1 0 0v2a3 3 0 0 1 1-1v-1l1-1h-1l-1 1Zm0 5 2-1 1-1 1-1v-1a14 14 0 0 1 1-4h-1v5l2-1 1-3h-1l1 2v1l3-2h-1l-2 1v1l2 1-1-1h-3l-1 1v1a12 12 0 0 1 3 0l1 1-4-2v1a67 67 0 0 1 5 1l-2-1-3-1 1 1 1-1 1-1h1l1 1-2-2v1l2-1 1-1h-1l-2 1v-3l-1 2v2l-2 1h1v-5h-1v5l-1 1h-1l-2 2Z" />
        <path
            d="m1238 240 4-3v-1l-4 3v1Zm-15-7h1l1 1v-2 2l2 2h1l-1-3v-2l1 3v2l2 2 3 1-3-2-2-1v-5h-1v5l1-1-2-1v-1l-1-2v3l-2-2-1 1h1Z" />
        <path
            d="m1222 233 3 1c-1 0-3 1-2 2l2-1 2 1-3 1-1 1 3-1h1l2 1 2 1 1 1 1 1c0 1 0 0 0 0l-1-2a234 234 0 0 0-5-3l-4 1h1l3-1-2-1h-2l2-1-3-1c0-1 0 0 0 0Zm8 0v1l1 1v1l2 1v-1a19 19 0 0 0 1-2h-1v-1h-2l-1-1v1-1 1a24 24 0 0 0 3 1v2s0 1 0 0h-2v-3h-1Z" />
        <path
            d="M1231 233v2l1 1h1v-2h-1v-1h-1v1h1v2h1l-1-1h-1v-1c0-1 0-1 0 0v-1Zm-7 10h-1l3 1h2l3-1 2-2-5 3h-1a24 24 0 0 0-4-2v1h1Z" />
        <path
            d="m1223 243 1 1 3 1v-1l-1 1h-1l-2-1-1 1 1 1h1l-2 2h1l2-1v-1 3l1-2v-1l2-1h-1v5l1-1v-4l2-1 1-1 2-1v-1l-3 2-1 1h-1v2l-1 3 1-4h-1l-2 1v3-3l-3 2h1c-1-1 1-2 2-2l-2-1 1 1h1l2-1v-1a11 11 0 0 0-2-1h-2Z" />
        <path d="m1233 242 2 1h-1v5l-1 1v1l-2 1 1 1 1-1 1-1 1-1-1 3h1v-3l-2 1-2 1 1 1 1-2 1-1 1-1v-6h-2c0-1 0 0 0 0Z" />
        <path
            d="m1235 251-2 2s-1 0 0 0h2v2h1v-3h-1l1 1h2l-1-1-1-1-1-1 1-1h-1l2 2 2 1v-1l-4-3v1l4 2h-1l-1-1-1-1h-1v2l1 1h1v1l-1-1h-1v3-3l-1 1h-1 1l1-1v-1Zm1-3v-5h1l1-1h-1l-1 1h-1v5h1Zm2-9v2l1 1a28 28 0 0 0 3 2h2l2-1h-1l-2 1v1h1l1 1 2-1-2 1h1l2 2v-1h-1l-2-1v3l1-1-1-1v-1l-2-1v4-2l-1-2c0-1 0-1 0 0v3l1 2v-5l1 1 1 2v1h1l-1-3v1h2l1 1v-1l-2-1 2-1h-3l-2-1v1l2-1 2-1a1 1 0 0 0 0-1l-2 1-2 1h-1l-1-1-2-1-1-1v-2Z" />
        <path d="m1237 242 2 1 3 2v-1l-2-1h-1l-1-1h-1Zm0 2v3h1l2 1v-3l-3-1 3 1h-1l1 3-1-1h-1v-1l-1-2Z" />
        <path
            d="m1237 245 1 2h2v-1l-1-1h-2 2v2h-1v-2h-1Zm3-5 1-1h1l1 1h1l-1 1h-2l-1-1 2 2 1-1 1-1-1-1-1-1-1 1-1 1c-1 0 0 0 0 0Z" />
        <path
            d="M1241 240h2-1v1h-1v-1h-1l1 1h1l1-1v-1h-2l-1 1h1Zm-14 0h1l1-1v1l1 1v-1l-1 1h-1v-1h-1l1 1h2v-1h-1v-1h-1l-1 1c-1 0 0 0 0 0Z" />
        <path d="m1226 240 1-1h2l1 1h1c0 1 0 0 0 0l-1-1h-1v-1l-1 1h-1l-1 1Z" />
        <path d="m1226 240 1 1 1 1h1l1-1 1-1a9 9 0 0 0-2 1h-1l-2-1Zm5 6 2-2v3h-1l-1 1v-3h-1v3h2l1-1v-3l-3 1 1 1Z" />
        <path
            d="M1231 247v-1h1v-1h1l-1 1h1l-2 1s0 1 0 0h2v-2h-2v2Zm220 64 2 1h1v-3l-1 1 1 1-1 1h1l1-1-1 1v3l3-2v-1l-3 3v6l2 1-1-1h-1v-6a12 12 0 0 0 3-2v-1l-1 1-2 2v-2l2-2c-1-1-2 0-2 1 0-1 1-3-1-3v3h1c-1 0-2-2-3-1h1-1Zm0 1v-1 1Z" />
        <path
            d="m1451 311 1 1 1 3-3-3c-1 1 0 1 1 2l1 1 1 3v3l-2 1s0 1 0 0l2-1h1a21 21 0 0 0-1-5l-1-2-1-1-1-1v1l3 2h1a3 3 0 0 0-1-3l-1-1h-1Zm5 6a10 10 0 0 1 2-1v3h-1l-1 1a103 103 0 0 1-1-2l1 2 2-1v-3h-1l-1 1Z" />
        <path
            d="m1456 318 1-1v1a5 5 0 0 0-1 1v-2 2a4 4 0 0 1 1 0l1-1v-1h-2v1Zm0 4 2-1 1-1h1v-2l1-3h-1v4h2v-1l1-2-1-1v3h1l2-1-2 1 1 1h1l-2-1h-1l-1 1-1 1a10 10 0 0 1 3 1h1a68 68 0 0 0-4-1 68 68 0 0 1 4 1l-1-1h-3 1v-1h4l-2-1 2-1v-1l-2 2v-3l-1 2v1l-2 1h1v-4h-1v4l-1 1-1 1-2 1Z" />
        <path
            d="m1456 323 4-3-4 2v1Zm-14-7 1 1 1 1v-3 3l2 1h1l-1-2v-2 2l1 2 2 2 2 1-2-1-2-2v-2l-1-2v-1 5l-1-1v-1l-1-2v3-1l-2-1h-1l1 1v-1Z" />
        <path
            d="m1441 317 2 1h1c-1 0-3 0-2 1h2l1 1 1-1-3 1-1 1h3l1-1 2 1a121 121 0 0 1 3 2v1h1l-1-2-3-1-1-1h-2l-3 1h1l3-1v-1l-2-1-2 1 2-1-3-2v1Zm8-1v3l1 1h2a40 40 0 0 0 0-3h-1l-1-1h-1v1-1a21 21 0 0 0 3 1c0 1 0 0 0 0v1l-1 1v1h1-1v-1h-1v-1h-1v-2Z" />
        <path
            d="M1449 317v1l1 1h1v-2h-2a5 5 0 0 1 2 1v1l-1-1v-1h-1Zm-6 9h-1l3 1h2l2-1 3-1-1-1-4 3h-1a21 21 0 0 0-4-2v1h1Z" />
        <path
            d="m1442 326 1 1 3 1v-1l-1 1h-1l-2-1v2h1s-2 0-2 2h1l2-2v3l1-3 1-1v4l1-2v-2l1-1 1-1 2-1-2 1-1 1h-1l-1 2v3-4l-2 1v2-2l-3 1h1l2-1-2-1 1 1h1l2-1v-1a11 11 0 0 0-2-1h-2Zm9-1 2 1v5l-1 1h-1l-1 2s0 1 0 0a16 16 0 0 0 2-1l1-1v2l1-2h-1l-1 1-2 1 2-2h1v-7h-2Z" />
        <path
            d="m1453 334-1 1-1 1h1l1-1v2h1v-3 1h1v1h1v-1l-2-1v-2l1 1 2 1-3-3c-1 0-1 0 0 0l3 3-1-1h-1l-1-1h-1v1l1 1 1 1-1-1-1 1 1 1v1-2h-2v1-1l1-1c1 0 0 0 0 0Zm1-3v-5h1l1-1-2 1h-1v5h1Zm2-8v2l1 1a29 29 0 0 0 3 1h2l2-1-1 1h-2l-1 1h2l1 1 2-1-2 1 2 2v-1h-1l-1-1v2-1l-1-1-1-1h-1l1 2v2-2l-1-3v4l1 1v-4h-1l2 1v2l1 1v-3l1 1 1 1 1-1-3-1 2-1h-3l-1-1v1l2-1 2-1a1 1 0 0 0 0-1l-2 1-2 1h-1a30 30 0 0 1-3-2l-1-1v-1c0-1 0-1 0 0Z" />
        <path d="m1456 325 2 1 2 2v-1l-2-1h-1l-1-1Zm-1 2v3h2l1 1v-3l-3-1 3 1v3-1a8 8 0 0 0-2 0v-2a65 65 0 0 0-1-1Z" />
        <path
            d="M1456 328v2h2v-2h-1l-1-1v1h1v2l-1-1v-1s-1 0 0 0Zm2-5 1-1h1l1 1h1l-1 1h-2l-1-1s-1 0 0 0l2 2 1-1h1v-1l-1-1h-2l-1 1s0 1 0 0Z" />
        <path
            d="M1459 323h2l-1 1h-1v-1h-1l1 1h2v-1l-1-1-1 1h-1 1Zm-13 1 1-1h1-1 1l1 1v-1l-2 1-1-1v1h1s0 1 0 0h2v-1h-1v-1h-1v1h-1v1Z" />
        <path d="M1445 323h1l1-1h1v1l1 1 1-1-2-1h-1a12 12 0 0 0-2 1s0 1 0 0Z" />
        <path d="M1445 324h1l1 1h1v-1h2v-1l-3 1v1-1h-1l-1-1v1Zm4 4 3-1h-1v3h-1l-1 1v-3 3h1l1-1h1v-3h-1l-2 1s0 1 0 0Z" />
        <path
            d="M1450 330v-2c0 1 0 0 0 0h1v1l-1 1c-1 0 0 1 0 0h1v-1l1-1h-2v2Zm-52-179 1 1v-2 2h1l1-1h-1v1a2 2 0 0 0-1 2h1l2-2-2 2h-1v4h1l1 1a2 2 0 0 0-1-1v-4h1l1-2h-1l-2 2h1v-2l1-1-2 1h1l-1-2v2l-1-1c-1 0 0 1 0 0Zm0 1v-1 1Z" />
        <path
            d="M1398 151v1l1 2-2-2h-1l1 1 1 1 1 2v2l-1 1c-1 0 0 0 0 0l1-1a15 15 0 0 0 0-3l-1-1v-1l-1-1 2 2a2 2 0 0 0 0-2l-1-1Zm3 5 1-1v2h-1v-2l-1 1 1 1v1l1-1 1-1v-1h-2v1Z" />
        <path
            d="M1401 156h1v-1 1a3 3 0 0 0-1 1v-1 1a2 2 0 0 1 1 0v-2l-1 1Zm0 3 2-1 1-1a8 8 0 0 1 0-3v3h1l1-1v-1l-1-1 1 2 2-1h-1v1h-1l1 1-1-1a1 1 0 0 0-1 0l-1 1v1a7 7 0 0 1 3 0l-3-1v1a56 56 0 0 1 3 1v-1h-1l-2-1v1l1-1h2c1-1-1-1-1-1h1l1-1h-1l-1 1v-2l-1 1v1l-1 1 1-2-1-1v3h-1l-1 1-1 1Z" />
        <path
            d="m1401 160 3-2v-1l-3 2v1Zm-10-5h1v1h1v-2h-1l1 1v1l1 1v-3 3l2 1 1 1h1l-2-1-1-1v-2l-1-1v3l-1-1v-1l-1-1v2h1l-2-1h-1 1Z" />
        <path
            d="m1390 155 2 1s-2 0-1 1h3l-2 1h-1a17 17 0 0 0 3 0h1l2 1v1l1 1-1-2a144 144 0 0 0-3-2l-3 1h2l1-1-1-1h-2v1l1-1-1-1h-1Zm6 0v2h1l1 1v-1a19 19 0 0 0 0-1v-1h-2l2 1v2-1h-1v-1h-1v-1Z" />
        <path
            d="M1396 155v2h2v-1l-1-1h-1v1a2 2 0 0 1 1 0v1h1-1v-2l-1 1v-1Zm-4 7h-1 2l2 1 1-1 2-1v-1l-3 2h-2l-2-1v1h1Z" />
        <path
            d="M1391 162h1l2 1h-3v1h1c-1 0-2 0-1 1l2-1h-1v2h1a186 186 0 0 0 1-2v-1 3l1-1v-2h1v-1l2-1-2 1h-1l-1 1v3-3l-1 1-1 1v1l1-1c-1 0 0 0 0 0v-1h-1l-1 1 1-1v-1h-1l1 1h1l1-1-1-1h-2Z" />
        <path d="m1398 161 1 1v3l-1 1-1 1v1a12 12 0 0 0 2-1v-1 2-2h-1l-1 1v1l1-2h1v-5h-1c0-1 0 0 0 0Z" />
        <path
            d="m1399 167-1 1v1l1-1v2h1v-2h-1 1l1 1v-1l-1-1v-1h-1l2 1 1 1v-1l-2-2-1 1 3 2v-1h-1l-1-1h-1v1l1 1h1-2v2-2h-1v1-1h1v-1Zm1-2v-3h1v-1h-1l-1 1v3h1Zm1-6v2l1 1a20 20 0 0 0 2 1l1-1h2-1l-2 1h1l1 1 1-1-1 1 2 1-1-1h-1v2-2l-1-1h-1v3h1l-1-2v-1c0-1 0 0 0 0v2l1 1v-3h-1l1 1 1 1v1-2l1 1h1l-2-1 2-1h-4 2l1-1a1 1 0 0 0 0-1l-1 1h-3l-1-1-1-1v-1Z" />
        <path d="m1401 161 1 1 2 1-2-1v-1h-1Zm-1 2v1l1 1h2v-2h-1l-1-1v1h1v2h1l-1-1h-1v-2l-1 1Z" />
        <path d="M1401 163v2h1v-2h-1 1v1h-1v-1Zm2-3v-1h1l1 1h-1v1l-1-1h-1l2 1h1l1-1-1-1h-2l-1 1h1Z" />
        <path d="M1403 160h2-2l1 1v-1h1l-1-1h-1v1Zm-9 0h2-2l1 1 1-1v-1h-2v1Z" />
        <path
            d="M1393 160a9 9 0 0 1 2-1l1 1h1l-1-1h-2l-1 1Zm0 0 1 1h2l1-1h-2v1-1h-2Zm3 4 2-1v-1 2h-1v1h-1v-2 2h2v-3l-2 1v1Z" />
        <path
            d="M1397 165v-2 1l1-1h-1v1l-1 1h1l1-1v-1h-2v2h1Zm-90-101h1v-1 1s1 0 0 0v2l1-1c0-1 0 0 0 0l-1 1v3h1c0 1 0 0 0 0a1 1 0 0 0-1 0v-3a7 7 0 0 0 2-1v-1l-1 1-1 1v-2h1-1v-1h-1v1h1-2 1Zm0 0Z" />
        <path
            d="M1306 64h1v2h1l-2-2v1a18 18 0 0 1 1 1v3l-1 1h1l1-1a10 10 0 0 0-1-3l-1-1a6 6 0 0 1 1 1h1a2 2 0 0 0-1-2s-1 0 0 0h-1Zm3 3h1v1h-1v-1 1h1v-2l-1 1Z" />
        <path d="M1309 67h1v1h-1v-1 1h1v-1h-1Z" />
        <path
            d="m1309 70 1-1h1v-3 2h1v-2a8 8 0 0 1 0 1h2-2v1h1-2l1 1h1-1l-1-1h2l-1-1v1l1-1h1-2a7 7 0 0 0 0-1v2h-1v-2 2h-1v1h-1s0 1 0 0v1Z" />
        <path d="m1309 70 2-1v-1l-2 2Zm-8-3h2v-1 1l1 1v-2 2l1 1 1 1-1-1-1-1v-2 2h-1v-2 1l-1-1-1 1Z" />
        <path
            d="M1301 67h1l-1 1h2l-1 1h2l2 1v1h1l-1-1v-1h-1l-1-1-1 1a9 9 0 0 1-1 0 13 13 0 0 1 1-1h-2 1v-1h-1Zm4 0v1h1l1 1v-2h-2v-1 1-1l1 1h1v1h-1l-1-2v1Z" />
        <path d="M1306 67v1-1s-1 0 0 0v1-1Zm-4 5v-1l1 1h2v-1h2l-3 1h-1a17 17 0 0 0-1-1v1Z" />
        <path
            d="M1302 72h2l-1 1h-1v-1l-1 1h1l-1 1 2-1v1-1h1v2-2l1-1 2-1-2 1h-1v3-2h-1v2-1h-2l1-1c-1 0 0 0 0 0h1a9 9 0 0 0 1 0 6 6 0 0 0-2-1Zm5-1v4l-1 1 1-1h1-1v1h1a7 7 0 0 1 0-1h-1l-1 1 1-1v-4Z" />
        <path
            d="M1307 76v1-1 1h1s0 1 0 0v-1l1 1v-1h-1v-1h1l1 1-2-2 1 2v-1l-1-1v2h1-1v1-1h-1v1-1h1-1Zm1-2v-2l1-1-1 1v2Zm1-4v1l1 1h3v-1 1h-2l1 1h2v-1l-1 1 1 1h-1v-1 1h-1v-1h-1v1l1 1-1-1v-2 2l1 1v-2h-1 1v1h1v-1 1h1l-1-1h1v-1l-1 1h-1l-1-1h2v-1 1h-3l-1-1v-1Z" />
        <path d="m1309 71 1 1h1-1l-1-1Zm0 1v2h1v-2h-1l1 1v1h-1v-2Z" />
        <path d="M1309 73v1h1v-1h-1 1v1h-1v-1Zm1-3h1v-1 1h1l-1 1-1-1 1 1 1-1h-1v-1l-1 1Z" />
        <path d="M1310 70h2-1v1-1h-1l1 1v-1h1-2Zm-6 0h1l-1 1v-1 1h1v-1h-1c-1 0 0 0 0 0Zm-1 0h3-1v-1h-1v1h-1Z" />
        <path
            d="m1303 70 1 1h1l1-1-1 1h-1l-1-1Zm2 3 2-1v1c-1 0-1 0 0 0l-1 1h-1v-1 1h2v-2l-2 1Zm1 1v-1 1-1 1Zm107 427 2 1v-3 3h1l1-1-1 1-1 1v2h1l3-3-3 3h-1v6h1l2 1c0 1 0 0 0 0l-1-1h-1v-6h1l2-3h-1l-2 3v-3l2-1c-1-1-2 0-3 1h1l-1-3v3c-1-1-1-2-2-1Zm0 0Z" />
        <path
            d="m1413 501 1 1 1 3c-1-2-2-3-4-3l1 1 2 2 1 3v3l-2 1c-1 0 0 1 0 0l2-1a22 22 0 0 0 0-5l-1-2-1-1-2-1 4 3a3 3 0 0 0-1-3l-1-1s0-1 0 0Zm5 6a12 12 0 0 1 2-1v3h-1l-1 1v-3h-1v3h1l2-1v-3h-1l-2 1h1Z" />
        <path
            d="m1418 508 1-1v1a5 5 0 0 0-1 1v-2 2a4 4 0 0 1 1 0v-1h1v-1l-1-1-1 1v1Zm0 4 2-1 1-1h1v-1a14 14 0 0 1 1-4h-1v4h2l1-1v-3 3l3-1-1-1-2 2 2 1-1-1h-2v1l-2 1h1a12 12 0 0 1 2 1h2l-2-1h-2l1-1h3c1-1-1-1-2-1l2-1 1-1h-1l-2 2v-3l-1 2v1l-2 1h1v-4h-1a15 15 0 0 0 0 4l-1 1-1 1-2 1c-1 0 0 1 0 0Zm0 1 4-3-4 3Zm-15-7 1 1 1 1v-3 3l3 1-1-2 1-2-1-1 1 3v3l2 1 3 2v-1l-2-1-2-2-1-2v-3h-1v5h1l-2-1v-2l-1-1v3-1l-2-1h-1 1Z" />
        <path
            d="m1402 507 3 1v-1c-1 1-3 1-2 2h2l2 1v-1l-3 1-1 1h3l2-1 1 1 2 1 1 1 1 2s1 0 0 0l-1-3a156 156 0 0 0-5-2l-4 1h1l3-1v-1l-2-1h-2v1l2-1v-1l-3-1v1Zm8-1v2l1 1 1 1h2a19 19 0 0 0 0-3h-1l-1-1h-2c1 0 1 0 0 0h1-1a23 23 0 0 0 3 1v3l-1-1h-1v-3h-1Z" />
        <path
            d="M1411 507v2h1l1 1v-3h-2a4 4 0 0 1 1 0v1h1l-1 1h1-1v-1h-1v-1Zm-7 9h-1l3 1 2 1 3-2a171 171 0 0 0 2-2l-5 3h-2l-3-1v1l1-1Z" />
        <path
            d="m1403 516 2 1 2 1h-1l-1 1-2-1v1l1 1v-1l-2 2h1l2-1v2h1a159 159 0 0 1 1-3h1l-1-1v5h1v-4l1-1 1-1h1l2-2-3 1-1 1-1 1v2l-1 3v-1l1-4h-1l-2 1v3-2l-3 1h1c-1-1 1-1 2-1v-1l-2-1v1h3l1-1-1-1h-1l-1-1h-1Zm10-1 2 1h-1v6l-1 1-2 2h1a17 17 0 0 0 2-2h1v-1 3-3l-2 1-2 2h1l1-2 1-1h1v-6l-2-1Z" />
        <path
            d="m1415 525-2 1v1h1l1-1v2h1v-3l-1 1h1l1 1h1v-1l-2-1v-3l-1 1 2 1 2 1-3-3h-1l4 3v-1h-2l-1-2h-1v2l1 1 1 1-1-1h-1l1 2v1l-1-1v-1s0-1 0 0h-2 1l1-1Zm1-3v-6 1-1h1l1-1-2 1h-1v6h1Zm2-9v2l1 1a33 33 0 0 0 3 2l2-1 2-1h1l-1 1h-1l-2 1 1 1h1l3-1h-1l-1 1v1l2 1-1-1h-2v2h1l-1-2v-1l-2-1v5-3l-1-2 1 3v2-5 1l2 1v2h1v-2h-1l2 1h1l-2-2v1l2-2h-5l2-1h2a1 1 0 0 0 0-1h-2l-2 1h-1l-1-1-2-1-1-1v-1c0-1 0-1 0 0Z" />
        <path d="m1417 516 3 1 2 1-2-1-1-1-1-1-1 1Zm0 2v3h2l1 1v-4l-3-1v1h3v3a8 8 0 0 0-2-1v-1l-1-2v1Z" />
        <path
            d="m1417 518 1 2 1 1h1v-3h-2c-1 0 0 0 0 0l1 1s0-1 0 0v1h-1v-2h-1Zm3-4 1-1 1-1 1 1 1 1v-1l-1 1h-1v1l-1-1-1-1v1l2 1h1l1-1v-1h-1v-1h-2l-1 1v1Z" />
        <path
            d="m1421 514 1-1h1v1-1l-1 1h-1v-1h-1v1h1l1 1v-1h1l1-1h-3v1Zm-14 0 1-1h1l1 1h-2l-1-1v1h1l1 1 1-1v-1h-1v-1l-1 1h-1v1Z" />
        <path d="m1406 514 2-1 1-1v1h1l1 1v-1l-1-1h-3l-1 1v1Z" />
        <path
            d="m1406 514 2 1h2l1-1v-1l-2 2h-1v-1l-2-1v1Zm5 5 2-1v-1 3h-1v1h-1v-2h-1v2l1 1 1-1h1v-4l-2 2c-1 0 0 0 0 0Z" />
        <path
            d="m1412 521-1-1v-1h2v-1l-1 2h1l-2 1 2-1v-2h-2v3h1Zm443-334 2 1v-3 3h1l1-1-1 1-1 1v2h1l3-2v-1l-3 3-1 1v5l1 1 1 1 1-1h-1v-1h-1v-5l1-1 2-2v-1l-1 1-3 2h1v-2l2-2h-1c-1-1-1 0-2 1h1l-1-3v3c-1-1-1-2-2-1-1 0 0 0 0 0Zm0 0Z" />
        <path
            d="M1855 187c-1 1 0 1 1 1l1 3-4-3 1 2 2 1 1 3v3l-2 1v1l2-2a22 22 0 0 0 0-5l-2-2-1-1-1-1v1l4 2a3 3 0 0 0-1-3l-1-1Zm5 6a12 12 0 0 1 2-1v3h-1l-2 1h1v-3h-1v3h1l2-1v-3h-1l-2 1h1Z" />
        <path
            d="m1860 194 1-1v1l-1 1v-2 3a4 4 0 0 1 1-1l1-1v-1h-2v1Zm0 5 2-2h1l1-1v-1a14 14 0 0 1 1-4h-1v5l2-1v-1l1-2v-1 3l3-1h-1l-2 1v1h2-1l-2-1v1l-2 1a11 11 0 0 1 3 1l1 1v-1a79 79 0 0 0-4-1v1a82 82 0 0 1 5 1l-2-2h-3 1l1-1h2l1 1-2-2v1l2-2 1-1h-1l-2 2v-3l-1 2v1l-2 1 1 1v-5h-1v4l-1 1-1 1-2 1v1Z" />
        <path
            d="m1860 199 4-2v-1l-4 3c-1 0 0 0 0 0Zm-15-6h1l1 1v-3 3l2 2 1-1-1-2v-2l1 3v2l2 1 2 2 1-1-3-1-2-2v-4l-1-1v5h1l-2-1v-1l-1-2v3-1l-2-1h-1l1 1Z" />
        <path
            d="m1844 193 3 1c-1 0-3 0-2 1h2l2 1v-1l-3 1-1 1s0 1 0 0h6l2 2 1 1 1 1-1-2a155 155 0 0 0-5-3l-4 1h1l3-1v-1l-2-1-2 1 2-1-3-2v1Zm8 0v1l1 1v1h2v1-1a20 20 0 0 0 1-2l-1-1h-1l-1-1h-1v1-1 1a21 21 0 0 0 3 1v2h-1v-1h-1v-2h-1Z" />
        <path d="M1853 193v2h1l1 1v-2l-1-1h-1l1 1v2l1-1h-2v-2Zm-7 10v-1h-1l3 1 2 1 3-1 2-2s0-1 0 0l-5 2h-2l-3-1v1h1Z" />
        <path
            d="M1845 203h1l3 1-1 1h-1l-2-1-1 1h1l1 1s-2 0-2 2h1l2-2v3l1-3v-1h2-1v4h1v-5h2l1-1 2-1v-1l-3 2h-1l-1 1v2l-1 3 1-4h-1l-2 1v2-2l-3 1h1l2-1-2-1h2l2-1a11 11 0 0 0-2-1h-2Z" />
        <path
            d="m1855 202 2 1-1-1v6l-1 1a8 8 0 0 0-2 2l1 1 1-2h1l1-1v2c0 1 0 1 0 0v-2l-2 1-2 1h1l1-2h1l1-1v-6l-2-1v1Z" />
        <path
            d="m1857 211-2 1v1h1l1-1v2l1 1v-3h-1 1l1 1h1l-1-1-1-1-1-1 1-1h-1l2 1 2 1-3-3h-1l4 3-1-1h-1l-1-2-1 1v1l1 2h1v1l-1-1v-1l-1 1v2-2l-1 1h-1 1v-1l1-1Zm1-3v-5l1-1h1l-1-1-1 1h-1v6h1Zm2-9v2l1 1 2 1 1 1 2-1h2v-1 1h-1l-2 1 1 1h3v-1l-1 1v1l2 1-1-1h-2v2h1l-1-1v-1l-2-2v5-3l-1-2v4l1 1v-4l1 1 1 1v1h1v-2h-1l2 1h1l-2-2v1l2-1v-1l-2 1h-1l-2-1h2l2-1a1 1 0 0 0 0-1h-2l-2 1h-2l-2-2-1-1v-1Z" />
        <path
            d="m1859 202 2 1 3 1-2-1-1-1h-2Zm0 2v3h1l2 1v-4h-3c0-1 0 0 0 0l3 1v3-1a8 8 0 0 0-2 0v-1c-1 0 0 0 0 0v-1l-1-1c0-1 0 0 0 0Z" />
        <path
            d="m1859 205 1 1v1h2v-2h-1v-1h-1v1h1v2-1h-1v-1h-1Zm3-5 1-1 1-1v1h1l1 1h-1l-1 1-1-1h-1c0-1-1 0 0 0l2 1h1l1-1-1-1-1-1h-1l-1 2c-1 0 0 0 0 0Z" />
        <path
            d="m1863 200 1-1 1 1h-3 1l1 1h1a24 24 0 0 0 0-1v-1h-2l-1 1h1Zm-14 0h1v-1h1v1h1a5 5 0 0 0-1 0h-2c0-1 0 0 0 0l1 1h1l1-1v-1h-2l-1 1Z" />
        <path
            d="m1848 200 1-1h3l1 1-1-1-1-1h-1l-1 1-1 1Zm0 0 1 1h1l1 1v-1a8 8 0 0 1 2-1 9 9 0 0 0-2 1h-1l-2-1Zm5 5 2-1v2l-1 1-1 1v-3h-1v2l1 1h1l1-1v-3s0-1 0 0l-3 1h1Z" />
        <path
            d="M1853 207v-2h1a3 3 0 0 0 1 0l-1 1h1l-2 1 2-1v-2a3 3 0 0 1-2 1v2Zm105 15h1v-1h1v1s1 0 0 0v2l1-1c1 0 1 0 0 0l-1 1v4h1l-1-1v-3h1l1-1v-1l-1 1-1 1v-2h1-1l-1-1v1h-1Zm0 0Z" />
        <path
            d="M1958 222h1v2l-2-2v1h1l1 1v3a2 2 0 0 0-1 1l1-1a12 12 0 0 0 0-3h-1v-1l-1-1a6 6 0 0 1 2 2v-2h-1Zm3 3h1v1l-1 1v-2 2l1-1v-1h-1Z" />
        <path d="m1961 226 1-1v1h-1v-1 1h1v-1h-1s0 1 0 0v1Z" />
        <path
            d="m1961 228 1-1h1v-1a6 6 0 0 1 1-2h-1v3l1-1h1v-2 2l1-1-1 1h1-2l-1 1a5 5 0 0 1 2 0l1 1-1-1h-2l1-1h1l1 1-1-1 1-1-1 1v-2l-1 1v1l-1 1v-3 3h-1l-1 1Z" />
        <path
            d="m1961 229 2-2a24 24 0 0 1-2 2Zm-9-4h1l1 1v-2 1l1 2v-3 2l1 1h1l1 1-1-1-1-1-1-1a8 8 0 0 0 0-1v3-1h-1v-2 2-1h-2Z" />
        <path
            d="m1952 225 2 1h-2 2l1 1h-2v1l1-1h2l1 1 1 1v1-1l-1-1h-1l-1-1h-1a14 14 0 0 1-1 0h1a12 12 0 0 1 1 0l-2-1h-1 1c1 0 1 0 0 0l-1-1Zm5 0v2h1v-2h-1 1v2-1h-1v-1Z" />
        <path d="M1957 225v1h1v1-2h-1 1v2-1h-1v-1Zm-4 6v-1l1 1h2l1-1h1v-1l-2 2h-2a20 20 0 0 0-1-1v1-1 1Z" />
        <path
            d="M1953 231h2l-1 1h-1l-1-1v1h1l-1 1h2v1-1l1-1v2-2h1v-1h1l1-1-1 1h-2v3-2h-1v2-1h-2l1-1c-1 0-1 0 0 0h2v-1a6 6 0 0 0-2 0c0-1 0 0 0 0Zm5-1h1v4h-1l-1 1s0 1 0 0h1l1-1v1a8 8 0 0 1 0-1l-1 1h-1l1-1h1v-4h-1Z" />
        <path
            d="m1959 235-1 1h1v1h1v-1h1l-1-1h-1l1-1 1 1h1l-2-2-1 1 2 1h-1v-1h-1v1h1v1c1 0 1 0 0 0v-1l-1 1h1v1h-1v-1h-1 1v-1Z" />
        <path
            d="M1960 234v-3c0-1 0 0 0 0v-1h1-1l-1 1v3h1Zm1-5v1a26 26 0 0 0 3 1h2v-1 1h-2l1 1h1-1l2 1h-1l-1-1v2-2h-1v2-1l-1-2 1 2v1-2h1v2-2l1 1h1l-2-1a6 6 0 0 0 1 0h-1l-1-1h2v-1l-1 1h-3l-1-1v-2 1Z" />
        <path d="m1961 230 1 1 1 1v-1h-1l-1-1Zm-1 1 1 1v1h1v-1l-1-1s-1 0 0 0l1 1v1h-1v-2s-1 0 0 0h-1Z" />
        <path d="M1961 232v1h1v-1h-1 1v1h-1v-1Zm1-3 1-1h1v1l-1 1-1-1 1 1h1l1-1h-1v-1h-1l-1 1Z" />
        <path d="M1963 229h1-2 1v1-1h1l-1-1v1h-1 1Zm-8 0h2-2l1 1v-1h1-1v-1 1h-1Z" />
        <path d="M1954 229h1v-1h1v1h1l-1-1h-1l-1 1Zm0 0 1 1h1v-1h1l-1 1-1-1h-1Zm3 3 1-1v2h-1v-1 2-1h1v-2l-1 1Z" />
        <path
            d="M1957 233v-1h1v1h-1 1v-1h-1v1Zm93-145h2v-1 1h1-1v2l1-1c1 0 1 0 0 0l-1 1v4h1-1v-4a6 6 0 0 0 2-1h-1l-1 1v-1l1-1h-1v-1h-1v1h1-2Zm0 0Z" />
        <path
            d="M2050 88h1v2a7 7 0 0 0-2-2v1l1 1h1v4h-1 1v-1a12 12 0 0 0 0-2v-1l-1-1-1-1a7 7 0 0 1 2 2 2 2 0 0 0 0-2h-1Zm3 3h1v1l-1 1v-2 2l1-1v-1h-1Z" />
        <path d="m2053 92 1-1v1h-1v-1 1h1v-1h-1s0 1 0 0v1Z" />
        <path
            d="m2053 94 1-1h1v-1l1-2v1l-1 2h1v-1h1v-2 2l1-1-1 1 1 1-1-1h-1v1a5 5 0 0 1 1 0l1 1-1-1h-1l1-1 1 1-1-1 1-1-1 1v-2l-1 1v1l-1 1 1-2v-1h-1v3h-1l-1 1Z" />
        <path
            d="m2053 95 2-2a23 23 0 0 1-2 2Zm-9-4h1l1 1v-2 1l1 2v-3 2l1 1 1 1h1-1l-1-1v-2a9 9 0 0 0-1-1v3l-1-1v-2 2l-1-1h-1Z" />
        <path
            d="m2044 91 2 1h-1 1l1 1h-2v1l1-1h2l1 1 1 1v1-1l-1-1h-1l-1-1a11 11 0 0 1-2 0h2l-1-1h-1 1l-2-1Zm5 0v1l1 1h1v-2h-2 2v2h-1v-1h-1v-1Z" />
        <path d="M2049 91v1h1v1-2h-1 1v2-1h-1v-1Zm-4 6v-1l1 1h2l1-1h1v-1l-2 2h-2l-1-1v1Z" />
        <path
            d="M2045 97h2l-1 1h-1c-1 0-1 0 0 0h1l-2 1h2v1-1l1-1v2l1-1v-2h1l1-1-1 1h-1l-1 2v1-2h-1v2-1h-2 2v-1h-1s-1 0 0 0h2v-1h-2Zm5-1h1v4h-1l-1 1v1l1-1h1v-1 2-2 1h-2v1l1-2h1v-4h-1Z" />
        <path
            d="M2051 101v1h-1 1v1h1v-1h1l-1-1v-1l1 1h1l-2-1 2 1h-1l-1-1v2h1-1v-1 2-1h-1l1-1h-1Zm1-1v-3l1-1h-1v1a24 24 0 0 1 0 3Zm1-5v1h1l1 1h3v-1 1h-2l1 1h2-2l2 1h-1l-1-1v2-2h-1v2-1a14 14 0 0 0 0-2h-1l1 2v1-2h1v2-2 1h2l-2-1h2-2l-1-1h2v-1l-1 1h-2l-2-1v-1c0-1 0-1 0 0Z" />
        <path d="m2053 96 1 1 1 1 1-1h-2v-1h-1Zm0 1v2h1v-1l-1-1 1 1v1h-1v-2Z" />
        <path d="M2053 98a26 26 0 0 0 0 1h1v-1h-1 1v1h-1v-1Zm1-3 1-1h1v1h1-1v1h-1l-1-1 1 1h1l1-1h-1v-1h-1l-1 1Z" />
        <path d="M2055 95h1-2 1v1-1h1l-1-1v1Zm-8 0h2-2l1 1v-1h1-1v-1 1h-1Z" />
        <path
            d="m2047 95 1-1 1 1v-1h-2v1c-1 0 0 0 0 0Zm0 0v1h1l1-1-1 1-1-1s-1 0 0 0Zm2 3 1-1v2h-1v-1 2-1h1v-1l1-1h-1l-1 1Z" />
        <path
            d="M2049 99v-1h1v1h-1 1v-1h-1v1Zm54 80h2v-2 2h1v-1l-1 1v3l3-2v-1l-2 2-1 1v4l2 1c0 1 0 0 0 0l-1-1-1-2v-1l1-1 1-1 1-1v-1l-1 1-2 1h1v-1l1-2-2 1v-2 2l-1-1h-1v1Zm0 0v-1 1Z" />
        <path
            d="m2103 178 1 1 1 2-3-2 1 1 1 2 1 2v2l-2 1s0 1 0 0l2-1a17 17 0 0 0 0-4l-1-1-1-1-1-1v1l3 2v-1a2 2 0 0 0-1-2h-1v-1Zm4 5h1v2h-1a48 48 0 0 1 0-2l-1 1 1 1h1l1-1v-2h-1l-1 1c-1 0 0 0 0 0Z" />
        <path d="m2107 184 1-1v1a4 4 0 0 0-1 1v-2 2h1v-2h-1v1Z" />
        <path
            d="m2107 187 2-1h1v-2l1-3-1 1v3l1-1h1v-2 2l2-1h-1l-1 1 2 1-1-1h-2l-1 1v1h3a66 66 0 0 0-3-1v1a44 44 0 0 1 4 1v-1h-2l-2-1h1l1-1 1 1h1l-1-1 1-1v-1l-2 1 1 1-1-2v-1 2l-1 1-1 1h1v-4h-1v4h-1l-1 1-1 1Z" />
        <path
            d="m2107 188 3-2v-1l-3 2v1Zm-12-5h1l1 1 1-1-1-1v2l2 1v-4 2l1 2 1 1 2 1-2-1-1-1v-2l-1-2v4l-1-1v-1l-1-2v3-1l-1-1-1 1Z" />
        <path
            d="m2095 183 2 1v-1l-2 2h1l1-1 2 1h-3v1h4l2 1 1 1v1h1l-1-2-3-1-1-1h-1l-2 1 3-1-2-1h-2 2v-1l-2-1v1Zm6 0v2h1l1 1 1-1v-2h-2v-1h-1v1-1 1a19 19 0 0 0 2 1v2-1h1-2v-2l-1-1v1Z" />
        <path
            d="M2102 183v2h1v-2h-1c-1 0 0 0 0 0l1 1v1-1h-1v-1Zm-6 7 2 1h2l2-1 2-1h-1l-3 2h-1l-1-1a23 23 0 0 0-2 0v1-1Z" />
        <path
            d="m2096 190 1 1 2 1v-1l-1 1h-1l-1-1-1 1h1l1 1v-1l-2 2 2-1v2h1v-3h1v3l1-2v-1l1-1h1l1-1v-1l-2 1-1 1h-1v4-3l-2 1v2-2l-2 1 2-1v-1h-1 3v-1h-1l-2-1Zm7 0h2-1v5h-1l-1 2a12 12 0 0 0 2-1l1-1-1 2h1v-2h-1l-2 2 2-2 1-1v-4l-1-1-1 1Z" />
        <path
            d="m2105 197-2 1h2v1c0 1 0 1 0 0l1-1-1-1 1 1h1v-1h-1l-1-1v-1l2 1 1 1v-1l-3-2v1l3 2v-1h-1l-2-1v2a3 3 0 0 1 1 1v-1h-1a5 5 0 0 1 0 2v-2l-1 1 1-1s0-1 0 0Z" />
        <path
            d="M2105 194v-4h2v-1l-2 1v4c0 1 0 1 0 0Zm2-6v1l1 1a49 49 0 0 0 2 1h2l1-1h1-1l-1 1h-1v1h3-1v1l2 1-1-1h-2l1 2v-2h-1l-1-1v3-4l-1 1v2l1 1v-3l1 1v1l1 1v-2l1 1h1l-2-2v1l2-1h-3l-1-1v1l2-1h1a1 1 0 0 0 0-1h-1l-2 1h-1l-1-1-1-1h-1l1-1h-1Z" />
        <path d="m2107 190 1 1 2 1v-1l-1-1h-1l-1-1v1Z" />
        <path d="M2106 191v2h1l1 1h1v-3h-3l2 1v2h1l-1-1h-1v-2h-1Z" />
        <path d="M2107 192v1l1 1v-2l-1-1v1h1v1h-1v-1h-1 1Zm2-4 1-1 1 1h1-1l-1 1h-1v-1h-1l2 1h1l1-1-1-1h-1l-2 1h1Z" />
        <path d="M2109 188h2-1v1-1h-1v1h2v-1l-1-1v1h-1Zm-10 0h2l-1 1v-1h-1v1h2v-1l-1-1-1 1c-1 0-1 0 0 0Z" />
        <path d="M2098 188a15 15 0 0 1 2-1l1 1h1c0 1 0 0 0 0l-1-1h-2l-1 1Z" />
        <path d="m2098 188 1 1h1v1-1h1l1-1-2 1h-1l-1-1Zm4 4 2-1h-1v2l-1 1h-1 1v-2h-1v2l1 1v-1h1v-1h1v-2h-1l-2 1h1Z" />
        <path
            d="M2102 194v-2h1v1h-1v1l1-1v-1h-1v2Zm-987-78 3 2h1v-5 5l3-2-2 2-1 1v4h1l2-3 2-1c1 0 1 0 0 0v1l-3 2-2 2v7l1 2h1l2 2-1-2h-2v-10l2-1 3-3v-1l-2 1-4 3h1v-3l3-3c-2-1-3 1-4 1l1 1-1-5h-1v5h1c-1-1-3-3-4-2 0 0 0 1 0 0Zm0 1v-1 1Z" />
        <path
            d="M1115 116c-1 1 1 2 2 2 1 1 2 3 1 5l1-1a19 19 0 0 0-7-4l1 1 2 2 2 2 1 1v8l-1 1a7 7 0 0 0-2 2l3-2h1a35 35 0 0 0-1-9l-2-2-2-2-1-2-1 1c3 1 5 2 6 4h1a5 5 0 0 0-2-5l-2-2Zm8 10 2-1h1v4h-1l-2 2v-5h-1v5h1l3-2v-4c1 0 1 0 0 0l-1-1-3 2h1Z" />
        <path
            d="m1123 127 3-1h-1v2l-2 2v-3c0-1 0-1 0 0v3l2-1 1-1v-2l-1-1-2 2Zm0 8 4-2 1-2 2-1v-3l1-4h-1v7l3-1 1-1v-5 4l1 1 4-3h-1c1 1-3 3-3 3l3 2-2-1-2-1-2 1-2 2h1a17 17 0 0 1 4 1l2 1-2-1-4-1 1-1 2-1h2l2 1-3-2 3-1 1-2h-1l-4 2h1l-1-4-1 3v2l-3 2h1v-7h-1a26 26 0 0 0-1 7l-1 1-2 1-3 2v1Z" />
        <path
            d="m1123 136 7-4v-1l-7 4v1Zm-25-11c1-1 2 1 3 1l2 1v-4h-1l1 1v3l3 3h1l-1-4v-4l1 5 1 3 2 3 5 2-4-3-3-2-1-4a26 26 0 0 0-1-4v8l1-1-3-1-1-3s1-2-1-2l1 4-4-2h-1Z" />
        <path
            d="m1098 125 4 3v-1c-1 0-4 1-3 2h3l3 1-4 1c-1 1-2 1-1 2l4-1h3l2 1 4 2 2 1v3h1l-2-4-5-3-2-1h-2l-5 2 6-3-3-2-4 1 1-1h2v-1l-4-2Zm13 0a27 27 0 0 0 1 4l1 1 2 1h1a26 26 0 0 0 0-4l-1-1a33 33 0 0 1-3-1h-1a35 35 0 0 0 5 2v3h-1v1h1-1l-1-1h-1l-1-1v-2l-1-2Z" />
        <path
            d="M1112 126v3h1a53 53 0 0 0 2 1v-3h-1a8 8 0 0 0-2-1 8 8 0 0 1 3 1v3l-1-1-1-1v-2h-1Zm-12 15 4 1c1 1 2 2 3 1l2-1 2-1 4-2v-1l-7 5h-3a65 65 0 0 0-5-2v1-1Z" />
        <path
            d="m1100 141 2 1 4 2-2 1h-2l-3-1v1l1 1 2 1v-1c-2 1-5 1-4 3h1l4-2h-1c1 1-1 3 1 4l1-4 1-1 2-1h-1v7l1-4 1-2v-2l2-1 2-1 3-2v-1l-4 3-2 1-2 1v3l-1 4v-3l1-3-1-1-2 1-1 1v5-4h-1l-4 2h1c-1-1 2-2 3-2v-1l-3-1h1l2 1h1a25 25 0 0 0 3-2 18 18 0 0 0-4-2l-2-1Zm15-1 3 1v9l-2 1-1 1-2 3v1a28 28 0 0 0 4-3l1-1v-1 4c0 1 0 1 0 0a20 20 0 0 1 1-4h-1l-2 2-3 2 3-3 1-1 1-1v-9l-2-2-1 1Z" />
        <path
            d="m1118 155-2 2-1 1h2l1-1v3l1 1 1-2-1-3 2 1 1 1h1l-1-1-2-2-1-2v-2l3 3 3 1-6-5 6 5-2-1-1-1-3-2v3l1 2a7 7 0 0 1 2 1h-1v-1h-2v4-3a1 1 0 0 0-1-1l-2 2 1-1 1-1v-1Zm1-5v-9h2l2-1-3 1h-1v9Zm4-14v3l2 1a38 38 0 0 0 5 3h3l3-2h1v1h-2l-4 2 2 1 2 1c1 0 2-2 4-1v-1l-3 2v1l3 2-2-1-2-1v3l-1-2v-2l-3-1v7l1-1-1-2v-2l-1-3 1 5 1 3v-4l-1-3 3 2v2l1 2v-4l2 1 2 1-3-3v1l3-2v-1l-3 1h-2l-3-1 4-1 3-1a1 1 0 0 0 0-1h-3l-3 2-3-1a36 36 0 0 1-5-2l-1-2 1-2h-1Z" />
        <path d="m1122 140 4 2 4 2-4-2-2-1-1-1h-1Zm0 3v5l2 1 2 1 1-1-1-5-4-1 4 2v-1 5h1a13 13 0 0 0-3-1h-1v-2l-1-3Z" />
        <path
            d="M1123 145v3h3v-3l-1-1h-2v1h2v3l-1-1-1-3-1 1h1Zm4-8 1-2h2l2 1 1 1-2 1h-1l-1 1-3-3v1l3 2 2-1a65 65 0 0 0 2-1l-1-2h-1l-1-1-2 1a110 110 0 0 0-2 2h1Z" />
        <path
            d="m1128 137 2-1h1l1 1h-2v1h-1a6 6 0 0 1-2-2v1l1 1h3a27 27 0 0 0 1-1l-1-1-1-1-1 1h-2l1 1Zm-22 0 2-1h1l2 1-3 1h-1l-1-1c0-1-1 0 0 0l1 1h1v1l1-1a8 8 0 0 1 2-1l-1-1-1-1-1 1h-1l-2 1h1Z" />
        <path
            d="M1105 137a27 27 0 0 1 3-2h1l1 1 2 1s1 0 0 0l-2-2-1-1h-2l-1 1-2 1 1 1Zm-1 0 2 2h2v1l1-1a12 12 0 0 1 3-2c1 0 0 0 0 0l-3 2h-1l-1-1-2-1h-1Zm8 8 4-2h-1v5h-2l-2 1h1v-4h-1v4l1 1 1-1 2-1v-1l1-4h-1l-4 2h1Z" />
        <path
            d="M1113 148v-3h2l-1 2h1l-3 1v1l3-2v-3l-2 1h-1v3h1Zm410 154 1 1v-1 1-1 1h1-1v2-2h1-1v-1 1-1 1-1h-1Zm0 0Z" />
        <path d="M1523 302v1s1 0 0 0h1-1l1 1v1h-1 1v-1l-1-1h1-1v-1Zm1 2h1-1c0 1 0 1 0 0h1v-1l-1 1Zm0 0h1-1 1-1Z" />
        <path
            d="M1524 305h1v-2 1h1v-1 1h1-2v1h1-1 1l-1-1v1l1-1h1-1v-1 1h-1v-1 2h-1Zm0 0h1a11 11 0 0 1-1 0Zm-3-1v-1 1h1v-1 2h1-1v-2 1h-1v-1 1h-1 1Z" />
        <path d="M1520 304h1s-1 0 0 0h1l-1 1h2v1-1h-2l1-1h-2Z" />
        <path
            d="M1522 304h1v1-1h-1 1c0-1 0-1 0 0h-1Zm1 0Zm-2 2h2-2Zm0 0 1 1v-1l-1 1v-1 1s-1 0 0 0v1-1h1v1-2h1-1v2-1h-1v1-1h1v-1h-1Zm2 0v2h1-1 1-1l1-1v-1h-1Z" />
        <path
            d="M1524 308h-1v1h1c-1 0-1 0 0 0v-1 1-1h1l-1-1v1h-1 1s0 1 0 0v1-1h-1v1-1c1 0 0 0 0 0h1Zm0-1v-1 1c0 1 0 1 0 0Zm0-2v1a9 9 0 0 0 1 0h1-1v1h2-1 1-2v1-1c1 0 1 0 0 0v-1 1l1 1v-1h-1 2-1 1-1l-1-1v1l1-1h-2v-1Z" />
        <path d="M1524 306h1v1-1h-1Z" />
        <path d="M1524 306v1h1l-1-1 1 1h-1v-1 1-1Z" />
        <path d="M1524 307h1c0-1 0-1 0 0h-1c0-1 0-1 0 0h1-1Zm1-2h1l-1 1v-1 1l1-1h-1Z" />
        <path d="M1525 305h1-1v1-1 1h1v-1h-1Zm-3 1v-1 1-1 1-1 1h1l-1-1v1Z" />
        <path d="m1522 305 1 1v-1h-2s0 1 0 0h1Z" />
        <path
            d="M1521 306h1l1-1-1 1v-1s-1 0 0 0l-1 1Zm2 1v-1 1h-1 1v-1l-1 1h1Zm0 0c-1 0 0 0 0 0Zm278 163c2-2 4 1 5 2v-7 1c2 0 1 5 1 6l4-3-2 2-2 2v6h1a60 60 0 0 1 6-6h1l-1 1-4 4-3 2v11l1 2 2 1 2 2c-1-2-2-3-4-3l-1-4v-5l1-4 3-2 5-5c-1-1-3 0-3 1l-6 4h1v-5l4-4h-1c-2-1-3 2-4 2v1-5l-1-2v7c-1-1-3-4-5-3v1Zm0 0v-1 1Z" />
        <path
            d="M1801 469v1l3 2c2 2 2 4 2 7v-1a27 27 0 0 0-9-6l1 2 3 3 3 2 2 4v9l-1 1a10 10 0 0 0-4 3l5-3v-12l-4-4-2-2-2-2h-1c4 1 6 3 9 6a7 7 0 0 0-2-7l-3-2v-1Zm11 15 3-2h2v6h-1l-4 2v-7l-1 3 1 4 5-2v-6l-1-1-4 2v1Z" />
        <path
            d="m1813 485 3-2v2l-1 1v1l-3 2h1v-5h-1v5h1a9 9 0 0 1 2-2h1v-4l-4 2h1Zm-1 11 6-3 2-2 2-1v-2a32 32 0 0 1 1-9v10l3-2 1-1 1-6a35 35 0 0 1 1 6l6-4h-1c1 1-4 4-5 4v1c1 0 5 1 4 2h1l-4-2a3 3 0 0 0-4 1l-3 2v1a25 25 0 0 1 7 1l2 2c0-2-2-2-3-2l-6-2v1l2-2 3-2 3 1 3 1c0-2-3-3-5-3l1 1 4-3 1-2-6 3v-6c-2 0-2 3-2 4v1l-1 3-3 2 1-6-1-4a36 36 0 0 0-1 10l-3 2-2 1-5 3v1Z" />
        <path
            d="m1813 497 9-6a89 89 0 0 1-10 6h1Zm-36-15c1-1 3 1 4 1l2 2h1l-1-3v-2c1-1 1 3 1 4 0 3 3 4 5 5l-1-6c0-1-1-4 1-5h-1l2 7 1 4c0 2 2 3 4 4l6 3-6-3-4-4-1-6a36 36 0 0 0-1-5h-1v4l1 7v-1l-3-2c-2-1-2-2-2-4 0-1 1-3-1-3v6h1l-5-4-2 1Z" />
        <path
            d="m1777 483 5 3v-1s-5 1-4 3l5-1c2 0 3 1 4 3v-1l-6 2-2 2h1l6-1 3-1 3 2 6 3 2 2 2 3c0 1 0 1 0 0l-1-4-3-2a451 451 0 0 0-8-4h-4a61 61 0 0 1-6 2v-1l3-1 5-1v-1l-6-2h-3l-1 1 1-1 1-1h3v-1l-6-3v1Zm18-1a44 44 0 0 0 1 6l2 1 3 2h1v-1a37 37 0 0 0 1-5l-2-1a58 58 0 0 1-5-2h-1c1 0 0 0 0 0h1l1 1 3 1h2v7-1h-1l-2-1-1-1h-1l-1-6h-1Z" />
        <path
            d="M1797 484v3l2 1a25 25 0 0 0 2 1v-4l-1-1a13 13 0 0 0-3-1v1a11 11 0 0 1 4 1v4a82 82 0 0 1-3-2v-1l-1-2c0-1 0-1 0 0Zm-17 21v-1l-1 1 6 2c2 0 4 2 5 1l3-1 3-2a961 961 0 0 0 5-4l-10 6h-4l-2-1a76 76 0 0 0-6-2v2l1-1Z" />
        <path
            d="M1779 505c1 2 2 1 3 2l6 2v-1l-3 2h-3l-4-1v1l1 1 3 2v-1c-2 1-6 2-5 4l1 1 5-4c0 2-2 5 1 6l1-6c0-2 2-2 4-3l-1 7v3h1l1-5v-3l1-3 3-2 2-1 6-3-1-1-6 4-2 1-3 2v4l-2 7h1v-10l-3 1-2 1v3l-1 4 1-1-1-3v-2l-6 3h1c-1-2 3-3 4-3v-1l-3-2c-1 0-1-1 0 0h1l2 1h2a34 34 0 0 0 4-2v-1a23 23 0 0 0-6-2l-2-1h-1Z" />
        <path
            d="m1802 503 2 1 1 1v11l-1 3-2 1-4 5a43 43 0 0 0 5-4l3-1v-1l-1 6h1a28 28 0 0 1 0-6l-4 2-4 4 4-4 2-2 1-1v-14l-3-2v1Z" />
        <path
            d="m1806 525-4 3-1 1h2l2-1v-1h1v5l1 1 1-3-1-4 2 2 2 1h1l-1-2-3-2c-1-1-2-2-1-3v-3l4 4 4 2v-1l-8-7v1l8 7v-1l-2-1-2-1-4-3-1 4 2 2a10 10 0 0 1 3 3h-1v-1h-1l-2-1v6h-1a9 9 0 0 1 0-3v-2a1 1 0 0 0-1 0l-2 1-1 1v-1l1-1 3-2Z" />
        <path
            d="M1807 518v-13h3l2-2-4 2h-1v2l-1 11h1Zm6-21-1 3v2l3 2 4 2 4 2 4-1 4-2h1l1 1h-2l-2 1-5 1v1l3 2h3c1 0 3-2 5-1v-1l-5 3v1c2 0 4 1 5 3h1l-4-2-2-1h-1l1 5-1-3-1-3-4-2v10h1l-1-3a51 51 0 0 0-1-8h-1l1 8c1 1 0 3 2 3v-5l-1-5 4 3v3l2 2c0 1 0 0 0 0v-5h-1l4 2 3 1-6-4h1l4-2v-1l-4 1h-3l-4-2v1l5-2 4-1a1 1 0 0 0 0-2c-1-1-2 1-3 1l-5 2h-4a86 86 0 0 1-7-4l-1-3v-3Z" />
        <path
            d="m1812 504 4 2a60 60 0 0 1 7 3h-1l-5-3-3-1-2-2v1Zm-1 4v5l1 1 2 1 3 2 1-1-1-7-6-1c0-1 0 0 0 0l6 2v7l1-1a18 18 0 0 0-5-1l-1-1v-3l-1-3h-1 1Z" />
        <path
            d="m1812 510 1 3v1h1l1 1h2v-2l-1-2v-1h-2l-2-1v1h4v4h-3v-1l-1-3c0-1 0 0 0 0Zm5-11 3-3 2-1 1 1 2 1 2 2-3 1-1 1-2 1-4-4v1l4 3 3-1a131 131 0 0 0 3-2l-2-2-1-1-1-1c-1-1-2 0-3 1l-3 2v1Z" />
        <path
            d="m1819 499 3-2h1v1l2 1-2 1h-2c0 1 0 0 0 0a8 8 0 0 1-2-2l-1 1 2 1 1 1h1l1-1 2-1-1-2h-3l-2 1v1Zm-31 0 4-2v1h1l2 2v-1l-3 2-1-1h-1l-2-1c0-1 0 0 0 0l2 1 1 1h1l1-1h2v-1l-2-1v-1h-2l-1 1-2 1c-1 0 0 0 0 0Z" />
        <path
            d="M1786 499a33 33 0 0 1 5-3h2l1 1 3 2-3-2-1-1-2-1-1 1h-1l-3 2v1Zm0 0 3 2 1 1 2 1 1-1a24 24 0 0 1 4-3l-5 3h-2l-1-1-3-2Zm10 12 6-3-1 4v2l-2 1-2 2h-1v-6c0-1 0-1 0 0v6h1l1-1 3-1v-1l1-1v-6l-6 4Z" />
        <path
            d="m1798 515-1-2v-2h2l2-1-1 3-3 2s0 1 0 0l4-1v-4a8 8 0 0 1-3 0l-1 1v4h1Zm440-183c1-2 3 1 5 2v-7 6l1 1c1-1 2-3 4-3l-3 2-1 2v5a61 61 0 0 1 7-5s1 0 0 0l-1 1-3 4-3 2v5l-1 6 1 2 3 1 1 2h1c-1-2-2-3-4-3-2-1-1-3-1-4v-9l3-2 5-5c-1-2-2 0-3 0l-5 5c-1-2 0-4 1-5l3-4c-2-1-3 2-4 2v-5l-1-1h-1v7l1-1c-2 0-3-3-5-2v1Zm0 0v-1 1Z" />
        <path
            d="M2238 331v1l2 2c2 2 3 4 2 6h1l-9-6v2l4 3 3 2 1 4v9l-1 1a10 10 0 0 0-3 3c-1 0 0 0 0 0 1-2 3-3 5-3v-7l-1-5c0-2-2-3-3-4l-2-2-3-3v1a26 26 0 0 1 9 6c0-3 0-6-2-7l-3-3Zm10 15a24 24 0 0 1 5-3v6l-1 1-4 2h1l-1-3 1-4h-1v7h1l4-2 1-2v-5h-1l-5 2 1 1h-1Z" />
        <path
            d="m2249 347 4-2h-1v4l-3 1 1 1-1-5v5a10 10 0 0 1 3-2l1-1v-3l-4 1v1Zm0 11 5-4 3-1 1-1 1-2v-3l1-6v5l-1 5h1l3-2 1-1 1-6v-1a35 35 0 0 1 0 6l6-3c1 1-4 3-5 4 1 1 4 1 4 3v-1l-3-1a3 3 0 0 0-5 1l-2 2c-1 0 0 0 0 0a25 25 0 0 1 6 2l3 2v-1a177 177 0 0 0 0 1c0-2-2-2-3-3l-6-1 2-1 3-2 2 1 3 1h1c0-2-4-3-5-3l4-2c1-1 2-1 1-2l-6 3h1l-1-6-1 4v1l-1 2-4 3h1v-11a36 36 0 0 0-2 11l-2 2-2 1-5 3v1Z" />
        <path
            d="m2249 359 10-6h-1l-9 6Zm-35-15 3 1 3 2v-6l1 5c0 2 2 3 5 5v-1l-1-5v-5l1 7 1 4 4 4 6 3-5-4c-2-1-4-1-5-3v-6a36 36 0 0 0-2-6l-1 5 1 7 1-1-4-2-1-4-1-3h-1l1 6v-1l-5-3-2 1h1Z" />
        <path
            d="m2213 344 6 3c-1 0-6 1-4 3l5-1 4 2-6 2c-1 0-3 1-2 2l6-1 4-1 3 2 5 3 3 2 1 3h1l-2-4-3-2a325 325 0 0 0-8-4h-3a57 57 0 0 1-6 2v-1l2-1 5-1v-1l-5-2h-3l-1 1 1-1 1-1h2v-1l-5-3h-1Zm19 0a45 45 0 0 0 1 6l2 1 3 2h1v-1a38 38 0 0 0 0-6l-1-1-3-1h-3v-1 1s0-1 0 0h1l1 1a48 48 0 0 0 3 1h1l1 1v4l-1 1-3-1-1-1h-1l-1-6Z" />
        <path
            d="m2233 346 1 2v1l1 1a36 36 0 0 0 3 1v-4l-1-1a11 11 0 0 0-3-1v1a11 11 0 0 1 3 1v4h1a31 31 0 0 1-3-2l-1-2v-2s-1 0 0 0l-1 1Zm-17 21v-1l6 3 5 1 3-2 2-1a479 479 0 0 0 6-4l-10 6h-4l-3-1a72 72 0 0 0-5-2v1c0 1 1 0 0 0Z" />
        <path
            d="m2216 367 3 2 5 2v-1l-2 2h-3l-4-1-1 1 2 1 3 1c-2 1-6 2-5 4l6-3c0 2-2 5 0 6h1v-6c1-2 3-2 5-3h-1v10l2-5v-3l1-3 2-2 3-1a540 540 0 0 1 5-4l-6 3-3 2-2 1-1 5-1 7v-5l1-5h-1l-3 1-1 1v3l-1 3v-5l-6 3c-1-2 4-3 5-4l-4-2v-1l1 1 3 1h2a37 37 0 0 0 4-2v-1a25 25 0 0 0-6-2l-3-1Zm22-2 2 1 1 1 1 1v10l-1 2-3 2-4 5h1a41 41 0 0 0 5-4l2-2v6a29 29 0 0 1 1-6h-1l-3 2-5 4h1l4-4 2-2 1-1v-14l-4-2v1Z" />
        <path
            d="m2242 387-3 2c-1 1-2 1-1 2l2-1h1l1-1v1l1 4h1v-6l2 1 1 2 1-1v-1l-4-3-1-2 1-3 4 4c1 1 2 2 4 1l-8-7-1 1c4 1 6 4 9 6l-3-1-1-1-4-3h-1v4l2 2a11 11 0 0 1 3 2v1h-1l-1-1-2-1h-1l1 3v1l-1 2v-5a1 1 0 0 0-1 0l-2 1-1 1v-1l1-1 2-2c1 0 0 0 0 0Z" />
        <path
            d="M2244 379v-12h2l3-2h-1l-4 2h-1v13h1v-1Zm5-20v5l2 2 5 2 4 2 4-1a21 21 0 0 0 5-2v1h-1l-3 1-5 1v1l4 1 2 1c2 0 4-2 5-1v-1l-4 3 5 4v-1l-3-1-3-1v5h1l-2-4v-2l-4-2h-1l1 4v6-3a44 44 0 0 0-2-8c0-1 0 0 0 0l1 8 1 3h1v-5c-1-2-2-3-1-5h-1c2 1 4 1 5 3v3l1 2h1l-1-5 4 2 2 1v-1l-5-3a23 23 0 0 0 5-3l-4 1h-4l-3-2v1l5-2 4-1v-2c-1-1-3 1-3 1l-6 2h-3a51 51 0 0 1-7-4l-2-3a333 333 0 0 1 0-3Z" />
        <path
            d="M2248 365c1 2 3 2 5 3a56 56 0 0 1 6 3l-5-3-3-1-2-2h-1Zm-1 5 1 3v3l3 1 3 2v-8l-6-2-1 1 6 2v-1l1 7a18 18 0 0 0-4-2h-1l-1-1v-5h-1Z" />
        <path
            d="M2249 372v3l1 1 2 1 1-1v-4h-1l-1-1h-2v1h4v4h-2l-1-1-1-3Zm5-11 3-3 1-1a1 1 0 0 1 2 1l2 1 2 2a102 102 0 0 1-4 2h-2c-2 0-3-1-4-3h-1l5 4 3-1a81 81 0 0 0 3-2l-2-2-1-1-1-1h-3l-3 3v1Z" />
        <path
            d="m2256 361 3-2 1 1 1 1v-1l-1 1-1 1h-2a10 10 0 0 1-2-2v1l1 1 2 1h1l1-1a71 71 0 0 0 2-2l-2-1h-3l-2 1 1 1Zm-32 0 4-2h1l1 1 2 1-4 1h-1l-2-2v1l1 1 1 1h2l1-1 2-1-2-2h-1l-1-1-1 1h-1l-2 1v1Z" />
        <path
            d="M2223 361a35 35 0 0 1 5-4l1 1 2 1 2 2h1l-3-3-2-1h-2l-2 1-2 2v1Zm0 0 3 2 1 1h2a20 20 0 0 1 5-3c-2 0-4 1-5 3h-1l-1-1h-1l-3-2h-1 1Zm10 12 6-3-1-1v7h-1l-2 1-2 1v1-6h-1v5l1 1h1l1-1 2-1 1-1v-1l1-6h-1l-5 3v1Z" />
        <path
            d="M2234 377v-4h2l2-1h-1v3l-3 2c-1 0 0 1 0 0l3-2 1-3-1-1-2 1h-1v1c-1 0-1 0 0 0v4Zm-387-90 1-3h-1a10 10 0 0 1 3 1v3h1a7 7 0 0 1 0-3l-4-2v4h1-1Z" />
        <path
            d="m1851 288 1 2h1v-1l1-2h-1v4l1 2a5 5 0 0 1 1-2v2l1 2c0 1 0 0 0 0l-1-2v-2a1 1 0 0 0-1 0v2-1l-1-1 1-2v-2l-1 1-1 2h1l-2-2c0-1-1 0 0 0Zm-4-1 1 1h2l1 2 1 1-3-1h-1a1 1 0 0 0 0 1h1l2 1h1l1 1h1l-1-1h-1l-2-1h-2 4l-1-2-1-1-1-1h-2c0-1 0 0 0 0Zm6 6h-2v1h3v1h1v1-1 1-1l-1-1h-2l-1-1h1l1 1v-1Z" />
        <path
            d="M1848 285v2h1l1 1v-3h-2c0-1 0 0 0 0h1v1l1 1h-1l-1-1v-2 1Zm14-1v3l1-1h1v-3l-2 1v1l2-1v-1 2h-1v1h-1v1-3Z" />
        <path d="m1862 288 2-1h1v-5h-1l1 1h-1l1 3h-1v1h-2v1Z" />
        <path
            d="m1862 284 3-1v-1l-3 2h-1 1Zm-1 0v5l-1 1h1l-2-3v-1h-1v1l1 1v3c1 0 1 0 0 0v2l1-1v-1l-1-3v-2 1l1 3h1v-1l1-2v-3h-1Z" />
        <path
            d="m1860 293 2-2 3-1-1-1h-1l-2 1 2-2-1-1v1l-1 2h3v-1l-1 1-2 1-1 2Zm-4 2h2l1-1-1-1v-3 1a8 8 0 0 0 1 2v-2l-1-1h-1l1 3v2h-2c-1 0 0 1 0 0Z" />
        <path d="M1859 296v-2h1l1-1h1a1 1 0 0 0 0-1h-1l-1 1c-1 0-1 0 0 0h1-2v1l-1 1 1 1Z" />
        <path
            d="m1858 296 1 1h2l2-1v-1h1-1l-1 2h2-2l2-2v-1l-1 1-1 1-1 1h-2 1l-1-2-1 1Zm6 1c0-1 0 0 0 0h1v-1l1-1a36 36 0 0 1 1-1l-2 3h3v-1l-3 1 3-3-1-1-1 1-1 1v1l-1 1v-1 1Zm4 0 2-1h3v1h1l-2 1v1h-1l-1-1-2-1v1l3 1h1l1-1 1-1v-1h-1l-1-1h-1l-1 1h-2v1Zm0 0-3 1 3 2h-1l-1-1-1-1h-3l2 1c-1 1-1-1-2-1h-2l-1 1-1 1 1 1 2 1h2-3l1 1 1 1h4l-1 1-4-1 4 1h1v-1l-1-1h-4l-1-1 2 1 1-1-1-1h-2l-1-1v-1l1-1a3 3 0 0 1 2 1h2l-1-1h1l1 1 2 1h1l-1-1-1-1h2v-1Z" />
        <path
            d="M1856 300h2-1l2 2-1 2v1h1l1-2h-1l1 1v4h1v-3l1 2 1 2v2l3 1v-1l-2-1h-1v-3l-2-2-1 3 1-3v-1l-1-1h-1v2-1h-1l1 1v-4l-1-1h-2Z" />
        <path
            d="m1861 304 2 2 1 2 2 1v3l1-3-1-1-2-1-1-1v-1l-1-1h-1Zm-21-5 2-2 3 1h4l-1-1-2-2v1h2l1 1 3 1v-1l-1-1s-1 0 0 0v1h3l1-1c1 0 0-1 0 0l-1 1h-1l-2-1h-1v1l2 1v-1h-3l-1-1-2-1v1l1 1 1 1h1-3l-2-1h-2l-2 1s0 1 0 0v1Z" />
        <path
            d="m1840 299 3 1h1c1-1 3-2 5-1v-1l-2 2v2l2-2 1-1h2v-1l-2 2v1l1-1h-1l2-2-2 1-2 1v1h-1c0 1 0 1 0 0v-1l2-1v-1l-6 2h1l-4-2v1Z" />
        <path
            d="m1851 301 2-2 1-1v1l1 1v1l-2 1-1 1h2v-1l-1 2h-2l-2 1 1 1h1l2-1-4 4-1 1 1 3 2-1 2-2-1-2 2-3h-1l-1 2v3l-1 1-2 2v-3l2-2 2-3h-3v1-1h1l2-1 1-1v-1l-2 1 2-1 1-1 1-1-1-1-1-1h-1l-3 3h1Zm0 0v-1 1Z" />
        <path
            d="m1854 305 1 4 1-1-1-3v-2 2a1 1 0 0 0 2 0l-1-2v-3c1 0 0 0 0 0l-1 2 1 1v2-1l-1-1c0-1 0-1 0 0l-1 1v1l1 2v2l-1-4s-1 0 0 0Zm-12-6v-1h3-1v1h-2v-1l-1 1h2v1l1-1 1-1a5 5 0 0 1-1-1h-2l-1 1 1 1Zm7 11h1l1-1h1l-1-1v3h-1v-1h-1v1l1 1 1-1h1v-3a5 5 0 0 0-2 1l-1 1h1-1Zm20-13h1l1-1v1h1a4 4 0 0 0-1 1l-2-1 1 1h2l1-1-1-1h-2l-1 1Zm-6 11v2h1l1 1h1v-2h-1v-1h-2l1 1h1v2-1h-1v-2h-1Zm6 16s1 0 0 0Zm0 0 1 1v-1 2h1l-1-1v-1 1-1h-1Z" />
        <path
            d="M1869 324v1h1-1 1-1 1l-1-1Zm1 1v1-1Zm-1-1Zm3 0Zm0 0v-1 1Zm0 0v-1l-1 1h1Zm-1 0v1-1a3 3 0 0 0 0 1v-1 1-1Zm0 1h1-1l1-1c-1 0 0 0 0 0h-1v1h1-1Zm-1 1h1v-1 1h-1Zm1 0v-1 1Zm0 0h1a2 2 0 0 0-1 0Zm1 0v-1 1h1-1v-1 1Zm1 0h1-1 1-1Zm0 0h-1l1 1h-1v-1 1-1h-1v1h1-1 1-1 1-1 1-1v-1h1c0 1 0 1 0 0l1 1v-1h-1 1Zm-3 1h1c0 1 0 0 0 0v1h1v1-1h-1c0-1 0 0 0 0v-1 1-1h-1Z" />
        <path d="m1871 327 1 1v1-2h-1Zm-3-1h2s-1 0 0 0h-1 1-2Zm0 0v1l1-1v1-1h1l-1 1h1v-1h-1v1-1l-1 1v-1Z" />
        <path d="M1870 327v-1 1l-1 1h1-1v1h1v-1c0-1 0-1 0 0v1h-1v-1h1v-1 1-1h1l-1-1v1c-1 0 0 0 0 0Zm-1 0Z" />
        <path
            d="M1870 328v-1h1-1 1-1v1Zm-2-2v1l1-1h-1v1-1Zm1 2h1-1v1-1 1l1-1h-1Zm4-2Zm-1 2v1-1Zm-288 5h1l1 1h1l2-1-1 1v1l-1 3h1l1-1a7 7 0 0 1 2-1h1l-1 1-2 1-2 1v4h1l2-2 2-2h1v1a35 35 0 0 1 0 6h1a37 37 0 0 0 0-7l-1-1-1 1-2 1-3 2h1v-3l1-1 3-2-1-1-2 1-1 1v1c-1-2 0-3 2-4v-1a1 1 0 0 0-1-1l-1 2-2-1h-2Z" />
        <path
            d="M1584 333c2 1 3 3 2 4h1l-2-1-2-1v1l2 2c1 1 2 3 1 4h1a39 39 0 0 0-6-3v7-7 1a39 39 0 0 1 6 3c0-2 0-4-2-5l-1-1a7 7 0 0 1-1-1c0-1 0-1 0 0h1l1 1 1 1h1c0-2-1-4-3-5Zm10 13 1-1 1-1 1-1v-1a25 25 0 0 1 0-3v4c2 0 3-1 3-2v-2h1v1l-1 1a4 4 0 0 0 3 2h-2l-3 1v1a11 11 0 0 1 3 1v1l-1-1h-1l-1-1h-2l-2 1 1 1 1-2h2l1 1 1 1h2v-1h-1l-3-2 3-1h3a1 1 0 0 0-1-1h-1l-1-1v-2h-1v1l-1 1-2 2h1v-4h-1l-1 4v1h-1l-1 1v1Zm-18 4 1-1h1l3-2v-1h-1l-2-1h-2l-2 1h-2 1l3-2c-2-2-4-1-6 0h6a17 17 0 0 0-4 2 1 1 0 0 0 0 1h1l3-1 1-1 1 1 2 1h-1l-1 1-2 1-1 1h1Z" />
        <path
            d="m1570 344 3-1v-3s0-1 0 0l1 2 2 2 1-1v-4 5l1 1 3 1-2-2h-1v-1l-1-3v-1a1 1 0 0 0-1 0v5-1h-1l-1-1v-2l-1-1a1 1 0 0 0-1 0l1 2-1 2-2 1Zm12-3v4l1 2a9 9 0 0 0 2 1h2v-3l-1-2-1-1-3-1 3 2 1 1v3l-1 1-1-1a8 8 0 0 1-2-1v-5Zm6 6v-3a17 17 0 0 1 5-4h-1a22 22 0 0 1 1 6h-1l-1 1-2 1h1l-2-1c-1 0-1 0 0 0l1 2h1a23 23 0 0 1 3-2v-1a23 23 0 0 0 0-6h-1l-3 3-2 2v2h1Z" />
        <path
            d="m1590 350 2-2h2l2 1 2 2v-1l-2 1-2 2-3-1-1-1v-1l-1-1v2l1 1 3 1 3-1 3-1v-1l-3-2-2-1h-1l-1 1-2 1v1Zm-6-1 1 2v-1l-3 2c-1 0 0 1 0 0l3-1v-2h-1Z" />
        <path
            d="m1577 350 4-2h2l1 1h1a6 6 0 0 0-3-2l-1 1-4 2c-1 0-1 0 0 0Zm0 0 2 1 3 1-3-1-2-1s-1 0 0 0Zm5 4 2-2h3c0 1 0 0 0 0l-2-1-1 1-2 1v1Zm13-8 4 4h1l-1 1-1 1-3 1v1l1 1 1-1-2-1v1l3-2c1 0 3-1 2-2l-1-1-1-1-3-2s-1 0 0 0Z" />
        <path
            d="m1597 355 2-1 2-1-1 1-2 1-1 1h5c1 0 1 0 0 0l-1 1h-1v4l-1-4-2-1-1 5h1a40 40 0 0 1-1-5l-2-2h-1v3l-1 3-1-1a27 27 0 0 1-3-2l-1 1 1 3 1 2h1l1 1-2-1h-2l1 2 1 1 1 1h-1l-1-1h-1l-1 1h-1l1-1 1-4h-1l-2 2v-1l2-1 1-1v-3c0-1 0-1 0 0v2l-3 2-1 2v1l4-2-1-1v2l-1 2-1 2h2l1-1c1-1 1 1 2 1l1-1-1-1-1-2v-1h-1l2 1 2 1 1-1h-1l-2-2h-1v-4h-1l4 2 2 1v-3l1-4-1 1h2l1 2a43 43 0 0 0 0 4c2-1 1-4 1-5l2 2 1 3 1-1v-2l1-1c1 0 2-1 1-2h-5v1c0-1 4-2 3-3h-1l-3 1v1Z" />
        <path d="m1578 356 3-2v7l1-1 2-1 3-1v-1a29 29 0 0 0-4 2l-2 1v-6l-3 2Z" />
        <path
            d="M1582 354v5s0 1 0 0l4-2 1-1v-1a125 125 0 0 0-1-3v5l-4 2v-5Zm6-2h1v-1 1h-1Zm0 0-1 3v1l1 1 2 2h1l1 1v-1 1-1l-1-1a8 8 0 0 1-3-2v-4Zm4 2 1 1v1l-1 3c0 1 0 1 0 0a13 13 0 0 0 1-5h-1Z" />
        <path
            d="m1589 352 2 1 1 1h1v-1l-2-1-2-1v1Zm-16 1h1a8 8 0 0 1 1 1l1 1h3l1-1 1-1h-1 1-1l-1 1-1 1-1-1a12 12 0 0 0-3-1l-1-1v1Z" />
        <path d="m1575 350 3 2 2 1h1l-3-2a54 54 0 0 0-2-1h-1Zm-4 7h4l2-1v-1l-2 1h-3l-1 1Z" />
        <path d="m1573 353 2 2 2 1v-1h-2l-2-2Z" />
        <path d="m1575 358 2-1v4l1-1v-4c0-1 0-1 0 0v2l-1 1v2-5l-2 2Z" />
        <path
            d="m1571 357 2 1h1v1l-1 1v1h1c0 1 0 1 0 0h1l1-3h-1a28 28 0 0 1-1 3v-4h-3Zm84-319 1 1h2c0-1 0 0 0 0a4 4 0 0 0-1 1v2a27 27 0 0 1 2-1h1a4 4 0 0 1-2 1l-1 1v2l2-1 2-1v4h1v-3l-1-1v-1l-1 1h-1l-2 2v-2h1v-1l2-1v-1l-3 2 1-3 1-1h-1l-1 1-1-1-2 1h1v-1Z" />
        <path
            d="m1655 39 1 3v-1l-1-1h-1l-1 1 3 1v3a26 26 0 0 0-4-2v5h1v-5h-1a27 27 0 0 1 4 2c1-1 1-3-1-3l-1-1a5 5 0 0 1 0-1l1 1 1 1h1l-2-4-1 1h1Zm6 9 1-1 1-1h1v-3 3l2-2v-1c0-1 0 0 0 0v1a3 3 0 0 0 2 1h-1l-3 1v1l2 1h1l-2-1h-2l-1 1 1-1h1l1 1h2l-1-1-2-1v1l2-1h2a1 1 0 0 0 0-1h-1l-1-1 1-1-1-1v1l-1 1-1 1v1-3h-1a13 13 0 0 0 0 3h-1l-1 1v1Zm-12 2h1l2-1v-1l-2-1h-1l-2 1h-1l1-1h2v-1h-4c-1 0 0 1 0 0h4a12 12 0 0 0-3 2h1l2-1h1l1 1h1l-1 1h-1l-1 1-1 1 1-1Z" />
        <path
            d="M1645 46h1l1-1v-2 2l2 1v-3h1v4l2 1 1-1-2-1h-1v-4l-1 1v3l-1-1v-1l-1-1v-1a1 1 0 0 0-1 1v2l-2 1h1Zm8-2v4a6 6 0 0 0 2 1h2v-2l-1-2h-1l-2-1 2 1 1 1v2s0 1 0 0v1l-1-1a6 6 0 0 1-2 0v-1l1-3h-1Zm4 4v-2h1l3-2h-1a16 16 0 0 1 0 4l-2 1h1l-2-1v1h1a15 15 0 0 1 3-1v-5h-1l-2 2-1 1v2c0 1 0 1 0 0Zm2 2 1-1h2l1 1 2 1v-1l-2 1-2 1-1-1h-1v-1h-1v1l1 1 2 1 2-1 2-1v-1l-2-1-1-1h-1l-1 1-2 1h1Zm-4 0v1l-2 1 2-1v-1s0-1 0 0Z" />
        <path d="m1649 51 3-2h1l2 1v-1h-1l-1-1-1 1-3 1v1Z" />
        <path
            d="m1649 51 2 1h2l-2-1-2-1v1Zm4 2 2-1h2l-1-1h-1l-2 2Zm9-5 3 2v1c1 0 0 0 0 0l-1 1-2 1 1 1h1l-2-1 3-1 1-2h-1l-1-1-2-1c0-1 0 0 0 0Z" />
        <path
            d="m1664 54 1-1h1-1l-1 1 2 1h2-1l-1 1v2l-1-2-1-1h-1v3h1a34 34 0 0 1-1-3l-2-2v3l-1 2v-1h-1l-2-1v2l1 1 1 1c0 1 0 1 0 0h-1l-1-1v2l1 1s1 1 0 0h-1s0-1 0 0h-1l-1 1v-1h1l1-3h-1l-2 1h1l1-1 1-1v-2h-1v2l-2 1-1 2h1l2-2v1l-1 1v2h1v-1l2 1a1 1 0 0 0 1 0l-1-2h-1v-2 1h1l1 1h1v-1l-2-1v-1l-1-2 2 1 2 1v-4h1l1 1v3c2 0 1-2 1-3h-1l2 1 1 2 1-1-1-1h1c1-1 2-1 1-2h-4c1 0 4-1 3-2h-1l-3 2h1Z" />
        <path d="m1651 55 1-1v3a1 1 0 0 0 1 1 28 28 0 0 1 4-2h-1a20 20 0 0 0-2 1h-1s0 1 0 0v-4h-1l-2 1 1 1Z" />
        <path d="M1653 53v4l3-2h1v-3h-1v3l-3 2v-4Zm4-1h1v-1 1h-1Zm0 0v3l1 1 1 1h1c1 0 1 0 0 0l-1-1a6 6 0 0 1-2-1v-3Z" />
        <path
            d="M1660 53v1a8 8 0 0 1 0 3h1a9 9 0 0 0 0-4h-1Zm-2-1h1l1 1h1l-1-1-2-1v1Zm-11 1h1a8 8 0 0 1 1 1h2l1-1v-1 1h-1l-1 1-1-1a8 8 0 0 0-2-1l-1 1h1Z" />
        <path d="m1648 51 2 1 2 1v-1l-2-1h-1v-1l-1 1Zm-2 4h4l-1-1a28 28 0 0 1-1 1h-3 1Z" />
        <path d="M1647 53a4 4 0 0 0 2 1v1l1-1h-2l-1-1Zm1 3 2-1h-1v3h1v-1l1-2-1-1v4-3l-2 1Z" />
        <path
            d="M1645 56h2v3l1-1 1-2h-1a27 27 0 0 1-1 2l1-1v-1l-1-1a54 54 0 0 0-2 0v1ZM912 294h1v-1 1h1s1 0 0 0v2l1-1-1 1-1 2v1l1 1h1-1v-4a6 6 0 0 0 2-1h-2v1-1l1-1h-1v-1h-1v1h-1Zm0 0Z" />
        <path
            d="M912 294h1v2a6 6 0 0 0-2-2v1l1 1h1v4h-1 1v-4h-1v-1h-1c0-1 0 0 0 0a6 6 0 0 1 2 1 2 2 0 0 0 0-2h-1Zm3 3h1v1l-1 1-1-1 1-1h-1v1l1 1 1-1v-1h-2 1Z" />
        <path d="m915 298 1-1v1h-1v1-2 2-1h1v-1h-1v1Z" />
        <path
            d="m915 300 1-1h1v-1a6 6 0 0 1 0-2v3l1-1v-1a5 5 0 0 1 0-1h1v2l1-1-1 1h1-2l-1 1h2v1-1h-2l1-1h2-1l1-1-2 1h1v-2l-1 1v1l-1 1v-3 3h-1l-1 1Z" />
        <path d="m915 301 2-2-2 1v1Zm-9-4h1l1 1-1-1v-1l1 1 1 2v-3 3l1 1h2-2l-1-1v-3 3l-1-1v-1l-1-1 1 2-2-1Z" />
        <path
            d="m906 297 1 1h-1 1l2 1h-2v1l1-1h1l1 1h1l1 1v1-1l-1-1h-1l-1-1h-1a14 14 0 0 1-1 1v-1h2l-2-1h-1 1l-1-1Zm5 0v2h1a8 8 0 0 0 0-1v-1h-2 2v2h-1v-2Z" />
        <path d="M911 297v1l1 1v-2h-1 1v2-1h-1v-1Zm-4 6c-1-1 0 0 0 0h4l1-1a213 213 0 0 1-3 1h-1l-1-1v1Z" />
        <path
            d="M907 303h2l-1 1h-2 1l-1 1h2-1l1 1v-1l1-1v2-2l1-1h1l1-1-2 1h-1v3-2h-1v2-1h-2 1v-1h-1 3a5 5 0 0 0-2-1Zm5-1h1v4h-1l-1 1h1v-1h1v1-1l-1 1h-1l1-1h1v-4h-1Z" />
        <path
            d="m913 307-1 1c0 1 0 0 0 0h1v1h1l-1-1h2-1v-1h-1v-1l1 1h1l-2-1 2 1h-1l-1-1v1h1a4 4 0 0 1 0 1l-1-1v2-1a1 1 0 0 1-1 0h1v-1Zm0-1v-3h1l1-1-1 1h-1a24 24 0 0 1 0 3Zm2-5v1a26 26 0 0 0 2 1h2l1-1v1h-2v1h2-1l1 1-1-1v2-2h-1v2-1h-1a16 16 0 0 0 0-2v2l1 1v-2h-1 1l1 1v1-2l1 1-1-1h1-2l-1-1h3v-1l-1 1h-3l-1-1v-2 1Z" />
        <path d="m915 302 1 1 1 1v-1h-1l-1-1Zm-1 1v2h2v-1l-2-1 2 1v1h-1v-1l-1-1Z" />
        <path d="M915 304v1h1v-1h-1 1v1h-1v-1Zm1-3 1-1 1 1-1 1-1-1 1 1h1v-2h-1l-1 1Z" />
        <path d="M916 301h2-2 1v1-1h1-2Zm-7 0h1-1v1h1v-1h1-1v-1l-1 1Z" />
        <path d="M908 301h1v-1h1v1h1l-1-1h-1l-1 1Zm0 0 1 1h1v-1h1l-1 1h-1v-1h-1Zm3 3 1-1v2h-1v-1 2-1h1v-2l-1 1Z" />
        <path d="M911 305v-1h1v1h-1 1v-1h-1v1Zm-478-59v1-1h1l-1 1v1-1l1-1h-1v1-1Zm0 0Z" />
        <path d="M433 246v1a1 1 0 0 0 0-1h-1l1 1v1-2h-1l1 1v-1Zm0 1h1-1 1-1Zm0 0h1-1 1-1Z" />
        <path d="M433 248h1v-1h1-1 1-1 1-1 1-1 1-1 1-2l1 1h-1Z" />
        <path d="m433 248 1-1a6 6 0 0 1-1 1Zm-2-1h1l1 1-1-1h-1Z" />
        <path
            d="M431 247h1-1 1l-1 1 1-1v1h1l-1-1h-1 1-1 1-1Zm1 0h1-1 1-1Zm0 0h1-1 1-1Zm0 1h-1 2-2 1Zm-1 0h1-1v1h1-1 1v-1h1-1v1h-1 1c-1 0 0 0 0 0v-1h-1Zm2 0v1-1Zm0 1v1-1 1-1h1-1 1-1v1-1 1-1Zm0 0v-1 1Zm0-1h2-1v1h1s0-1 0 0v-1l-1 1h1-1v-1 1-1 1h1-1 1v-1h-1 1-2Zm0 0h1-1Z" />
        <path d="M433 248v1h1v-1h-1l1 1v-1 1h-1v-1Z" />
        <path d="M433 248v1h1v-1h-1v1-1 1-1Zm1 0Zm0 0Zm-2 0Zm0 0h1-1Zm0 0h1-1Zm0 1 1-1v1h-1 1v-1h-1v1h1v-1h-1v1h1-1Z" />
        <path
            d="M433 249v-1 1h-1 1-1 1ZM709 71v-1h-1 2a4 4 0 0 0 1 1l-1-1h-2l1 1c0 1 0 1 0 0Zm2 0 1 1v-1 1l1 1v-1l1 1 1 1a2 2 0 0 1-1-1v-1h-1v1-1l-1-1v-1 2l-1-1Z" />
        <path d="M709 72h2l1 1h-2v1l1-1h2v1-1h-3 2l-1-1h-1l-1-1v1Z" />
        <path d="m713 73-1 1h3-3 1v-1Zm-4-3v1h1v1-2h-1v1h1-1v-1Zm7-2v1l1-1v-1h-1v1l1-1h-1l1 1h-1v-1 1Z" />
        <path d="M716 69a8 8 0 0 1 1-1c1 0 0 0 0 0v-2h-1 1-1l1 2-1 1h1-1Z" />
        <path
            d="m715 67 2-1h-1l-1 1Zm0 0 1 2v2l-1-2h-1v1h1v1h1v1-1l-1-1v-1h-1 1l1 2v-2l-1-2Zm1 5 1-1 1-1v-1l-1 1h-1v1l1-2h-1v2l1-1h1-1l-1 1v1Z" />
        <path d="M715 74h1v-2l-1-1v1h1-1v-1s-1 0 0 0v1l1 1v1-1l-1 1Zm1 0v-1l1-1v-1l-1 1h1-1v2Z" />
        <path
            d="M716 74h2v-2s1 0 0 0v2l1-1-1 1 1-2h-1v2h-1l-1-1v1Zm3-1 1-1v-1l-1 2h1l1-1-2 1h1v-2l-1 1v1Zm2-1h1v-1h2l-1 1v1h-2 2l1-1v-1h-2l-1 1Z" />
        <path
            d="M721 73h-1l1 1h-1l-1-1-1 1h1-2v2h2-1v1h2l1-1v1h-2 3l-1-1h-1l-1 1-1-1v1l1-1h1-3v-1l1-1h1v1l1-1h-2 4l-1-1h-1 1Z" />
        <path
            d="M716 76h1v1l1 1v-1l1 1v1h1l-1-1h1l1 1v1h2-2v-1a2 2 0 0 0-1-1h-1c0-1 0 0 0 0v1-2h-1v1-1a2 2 0 0 0-1-1h-1Z" />
        <path
            d="m719 77 1 1h1l1 1 1 1v-1l-1-1h-2l-1-1Zm-11 2 1-1 1-1h2l-1-1h-1 3-1v-1 1h1l1-1 1-1h-1v1h-2v1h1-3a3 3 0 0 0 1 0l1 1v-1l-2 1h-2v1s0 1 0 0v1Z" />
        <path d="M708 79h2l2-2-1 1v1h1v-1l1-1v-1 2-1l1-1h-1v1l-1 1-1 1 1-1v-1l-2 2-2-1v1Z" />
        <path
            d="m713 78 1-2h1v2h-1v1l1-1v1h-1v1h1v-1 2l-1 1v1a14 14 0 0 0 1 1l1-1v-4h-1v1l1 1v2l-1 1-1-2h1v-3l-1 1 1-1v-1h-1 1v-1h1v-1h-1l-1-1v1l-1 2Zm0 0v-1 1Z" />
        <path
            d="m716 79 1 2v-1a8 8 0 0 0-1-1v-1 1l1-1h-1v-2a1 1 0 0 0 0 2h1-1v1l1 1v1l-1-2Zm-8-1h2v-1 1h-2v1h1v-1h1v-1h-1v1h-1Zm6 4h1v-1 2-1h-1l1 1 1-1-1-1v1h-1 1-1Zm8-10h1v-1a2 2 0 0 0 0 1h-1c-1 0-1 0 0 0h1v-1h-1v1c-1 0 0 0 0 0Zm-1 7v1h1v-2h-1v1h1v1-1h-1ZM236 235l1-2 2 1 1 1h-1a6 6 0 0 0 0 2h1a6 6 0 0 1 0-2v-1l-3-2v1l-1 2Zm3 2 1 3h1v-1l1-2v2l-1 1v3h1a6 6 0 0 1 1-2l-1 2 1 3v-1a4 4 0 0 1 0-3v-1a1 1 0 0 0-1 0l-1 2 1-1-1-1 1-1v-2l1-1h-1l-1 1-1 2h1l-1-3h-1Z" />
        <path
            d="M236 236a10 10 0 0 0 2 2l1 1 1 2v-1l-3-1h-1a1 1 0 0 0 0 1h1l1 1 2 1 1 1c0 1 0 0 0 0v-1l-1-1-2-1h-2 1l3 1-1-2v-1l-1-1-2-2v1Z" />
        <path
            d="M241 243h-1l-1-1a1 1 0 0 0-1 1h1l2 1v1h1v1c0-1 0 0 0 0v-2h-1l-1-1h-1 2Zm-4-9v2h1v1h1v-2l-1-1h-1c0-1 0 0 0 0h1v1c1 0 1 0 0 0v2h1l-1-1-1-1v-1c0-1 0-1 0 0Zm14 2v3l1-1h1v-3l-2 1h2v-1 2h-1v1h-1l1-2h-1Z" />
        <path d="m251 240 2-1 1-1v-3c-1 0 0 0 0 0l-1 3a10 10 0 0 0-2 1v1Z" />
        <path
            d="m251 236 3-1s0-1 0 0h-3v1Zm0 0-1 3-1 1-1 1h1l-1-3v-1h-1v6l-1 1h1l1-1v-4a8 8 0 0 0-1-2l1 1v3l1 1 1-2v-1l1-3c0-1 0-1 0 0Z" />
        <path
            d="m248 244 1-2h4l-1-1h-3v1l1-1 1-1v-1 1-1l-2 2v1h3c0-1 0-1 0 0v-1l-1 1h-2l-2 2h1Zm-5 2h2l1-1v-4 3h1v-1l-1-2h-1v5l-2-1v1Z" />
        <path
            d="m246 246 1-1h2v-1c1 0 0 0 0 0h-2 2-2l-1 1-1 1h1Zm-1 0 1 2h1l1 1 1-1 1-1h1-1l-1 1v1h2v-1h-2v1l2-2v-1h-1l-2 2h-2v-2h-1Zm6 2v1l1-1 1-1h2v-1l-3 3h3-3l3-2v-1h-1l-1 1-1 1h-1v1-1Zm4 2 1-1h2l1 1 1 1v-1 1h-1l-1 1h-1l-1-1-1-1h-1l3 2h2l1-1h1l-1-1-1-1-1-1-1 1h-2v1Z" />
        <path
            d="M255 250h-3l2 2-1 1v-1l-1-1-1-1-2-1v1l1 1-1-1a3 3 0 0 0-3-1l-1 1v2l2 1c1 0 2 0 1 1l-2-1h-1l1 2h2l1 1h2l-1 1-3-2v1l3 1h1v-1h-1l-1-1-2-1-1-1 2 1h1v-1h-1l-2-1-1-1 1-1 1-1h1l1 2a1 1 0 0 0 1 0l-1-2v1h1l1 1 2 2h1v-1l-1-1-1-1h3c0 1 0 0 0 0Z" />
        <path
            d="M242 251h2v3l-1 1h1c0 1 0 0 0 0l1-1v-1 6l2-3h-1l1 2v4l2 2 1-1-2-1-1-1 1-1-1-2v-2h-1l-1 3 1-3v-3h-1l-1 2 1-2a3 3 0 0 0-1-2v-1h-2v1Z" />
        <path
            d="m247 256 1 2 1 1 1 1v4l1-3-1-1-1-1-1-1v-1l-1-2v1Zm-20-10 3-1 2 1 3 1h1l-1-1-2-2 2 1 1 2h3l-1-1s-1-1 0 0l1 1h2l1-1c1 0 0 0 0 0h-1l-1 1-2-1v-1h-1v1l1 1-2-1-1-1c-1-1-1-2-2-1l1 1 1 2v-1h-2l-2-1-2-1-2 1v1Z" />
        <path
            d="m227 246 3 2 6-1c-1 0-5 3-3 3h1l1-1 2-1h2v-1l-2 2h-1l1 1v-1l2-1v-1h-2l-3 2-1 1v-1h1l2-2c-2-1-4 0-6 1l-3-2c0-1 0 0 0 0Z" />
        <path
            d="m237 250 2-2h2l1 2-1 1h-2l-1 1v1h2v-1l-1 1-2 1h-2v1h3v-1l-4 4-1 1v3l3-1 1-1v-3l2-2s0-1 0 0l-2 2v1l-1 2h-1l-2 1v1-3l2-1 1-1c1 0 2-1 2-3h-2l-1 1v-1h4l1-2h-2 2l1-1 1-1v-1l-1-1h-2l-2 2c-1 0 0 0 0 0Zm0 0v-1 1Z" />
        <path
            d="M239 255v3l1 1v-6l1-1h-1v2l1 1a1 1 0 0 0 1 0v-5l-1 2v3-3h-1v1l-1 2 1 2v2l-1-4Zm-11-9a11 11 0 0 1 2-1v1l2 1v-1l-1 1h-2v-1h-1l1 1h3v-1a5 5 0 0 1-2-1h-1l-1 1Zm6 12v1l1-1a4 4 0 0 1 1 0v2-1l-1 1h-1v-2 3l1-1h1v-2c1 0 0 0 0 0a5 5 0 0 0-2 0v1-1Zm22-8h2l1 1v-1a4 4 0 0 0-2 1l-1-1c0-1 0 0 0 0-1 0-1 0 0 0l1 1h2v-1h-1v-1h-2v1Zm-8 10v1c-1 0-1 0 0 0v1l1 1 1-1v-2h-1l-1-1v1h1v2l-1-1v-1Zm-112-69 2 1v-4 3s0 1 0 0l2-1-1 1-1 1v2h1l3-2-3 2-1 1v5l1 1 1 1h1l-1-1v-1h-1v-5l1-1 2-2h-1l-3 2h1v-2l1-2c1 0 1 0 0 0l-2 1h1l-1-3v3c-1 0-1-2-2-1-1 0 0 1 0 0v1Zm0 0v-1 1Z" />
        <path
            d="M136 190c-1 1 0 1 1 2l1 2-4-3v1l1 1 2 2 1 3v2l-2 2c-1 0 0 0 0 0l2-1v-1a22 22 0 0 0 0-5l-2-1-1-1-1-1 4 2a3 3 0 0 0-1-3l-1-1Zm5 7a10 10 0 0 1 2-1v2h-1l-2 1h1v-3h-1v3l1 1 2-1v-3l-1-1-2 1 1 1Z" />
        <path
            d="m141 197 1-1v2a5 5 0 0 0-1 0v1-2c0-1 0-1 0 0v2a3 3 0 0 1 1-1v-1l1-1h-1l-1 1Zm0 5 2-1 1-1 1-1v-1a14 14 0 0 1 1-4h-1v5l2-1 1-3h-1l1 2v1l3-2h-1l-2 1v1l2 1-1-1h-3l-1 1v1a12 12 0 0 1 3 0l1 1-4-2v1a67 67 0 0 1 5 1l-2-1-3-1 1 1 1-1 1-1h1l1 1-2-2v1l2-1 1-1h-1l-2 1v-3l-1 2v2l-2 1h1v-5h-1v5l-1 1h-1l-2 2Z" />
        <path
            d="m141 203 4-3v-1l-4 3v1Zm-15-7h1l1 1v-2 2l2 2h1l-1-3v-2l1 3v2l2 2 3 1-3-2-2-1v-5h-1v5l1-1-2-1v-1l-1-2v3l-2-2-1 1h1Z" />
        <path
            d="m125 196 3 1c-1 0-3 1-2 2l2-1 2 1-3 1-1 1 3-1h1l2 1 2 1 1 1 1 1c0 1 0 0 0 0l-1-2a234 234 0 0 0-5-3l-4 1h1l3-1-2-1h-2l2-1-3-1c0-1 0 0 0 0Zm8 0v1l1 1v1l2 1v-1a19 19 0 0 0 1-2h-1v-1h-2l-1-1v1-1 1a24 24 0 0 0 3 1v2s0 1 0 0h-2v-3h-1Z" />
        <path
            d="M134 196v2l1 1h1v-2h-1v-1h-1v1h1v2h1l-1-1h-1v-1c0-1 0-1 0 0v-1Zm-7 10h-1l3 1h2l3-1 2-2-5 3h-1a24 24 0 0 0-4-2v1h1Z" />
        <path
            d="m126 206 1 1 3 1v-1l-1 1h-1l-2-1-1 1 1 1h1l-2 2h1l2-1v-1 3l1-2v-1l2-1h-1v5l1-1v-4l2-1 1-1 2-1v-1l-3 2-1 1h-1v2l-1 3 1-4h-1l-2 1v3-3l-3 2h1c-1-1 1-2 2-2l-2-1 1 1h1l2-1v-1a11 11 0 0 0-2-1h-2Z" />
        <path d="m136 205 2 1h-1v5l-1 1v1l-2 1 1 1 1-1 1-1 1-1-1 3h1v-3l-2 1-2 1 1 1 1-2 1-1 1-1v-6h-2c0-1 0 0 0 0Z" />
        <path
            d="m138 214-2 2s-1 0 0 0h2v2h1v-3h-1l1 1h2l-1-1-1-1-1-1 1-1h-1l2 2 2 1v-1l-4-3v1l4 2h-1l-1-1-1-1h-1v2l1 1h1v1l-1-1h-1v3-3l-1 1h-1 1l1-1v-1Zm1-3v-5h1l1-1h-1l-1 1h-1v5h1Zm2-9v2l1 1a28 28 0 0 0 3 2h2l2-1h-1l-2 1v1h1l1 1 2-1-2 1h1l2 2v-1h-1l-2-1v3l1-1-1-1v-1l-2-1v4-2l-1-2c0-1 0-1 0 0v3l1 2v-5l1 1 1 2v1h1l-1-3v1h2l1 1v-1l-2-1 2-1h-3l-2-1v1l2-1 2-1a1 1 0 0 0 0-1l-2 1-2 1h-1l-1-1-2-1-1-1v-2Z" />
        <path d="m140 205 2 1 3 2v-1l-2-1h-1l-1-1h-1Zm0 2v3h1l2 1v-3l-3-1 3 1h-1l1 3-1-1h-1v-1l-1-2Z" />
        <path
            d="m140 208 1 2h2v-1l-1-1h-2 2v2h-1v-2h-1Zm3-5 1-1h1l1 1h1l-1 1h-2l-1-1 2 2 1-1 1-1-1-1-1-1-1 1-1 1c-1 0 0 0 0 0Z" />
        <path
            d="M144 203h2-1v1h-1v-1h-1l1 1h1l1-1v-1h-2l-1 1h1Zm-14 0h1l1-1v1l1 1v-1l-1 1h-1v-1h-1l1 1h2v-1h-1v-1h-1l-1 1c-1 0 0 0 0 0Z" />
        <path d="m129 203 1-1h2l1 1h1c0 1 0 0 0 0l-1-1h-1v-1l-1 1a13 13 0 0 0-2 1Z" />
        <path d="m129 203 1 1 1 1h1l1-1 1-1a9 9 0 0 0-2 1h-1l-2-1Zm5 6 2-2v3h-1l-1 1v-3h-1v3h2l1-1v-3l-3 1 1 1Z" />
        <path
            d="M134 210v-1h1v-1h1l-1 1h1l-2 1s0 1 0 0h2v-2h-2v2Zm220 64 2 1h1v-3l-1 1 1 1-1 1h1l1-1-1 1v3l3-2v-1l-3 3v6l2 1-1-1h-1v-6a12 12 0 0 0 3-2v-1l-1 1-2 2v-2l2-2c-1-1-2 0-2 1 0-1 1-3-1-3v3h1c-1 0-2-2-3-1h1-1Zm0 1v-1 1Z" />
        <path
            d="m354 274 1 1 1 3-3-3c-1 1 0 1 1 2l1 1 1 3v3l-2 1s0 1 0 0l2-1h1a21 21 0 0 0-1-5l-1-2-1-1-1-1v1l3 2h1a3 3 0 0 0-1-3l-1-1h-1Zm5 6a10 10 0 0 1 2-1v3h-1l-1 1v-3l-1 1 1 2 2-1v-3h-1l-1 1Z" />
        <path
            d="m359 281 1-1v1a5 5 0 0 0-1 1v-2 2a4 4 0 0 1 1 0l1-1v-1h-2v1Zm0 4 2-1 1-1h1v-2l1-3h-1v4h2v-1l1-2-1-1v3h1l2-1-2 1 1 1h1l-2-1h-1l-1 1-1 1a10 10 0 0 1 3 1h1a68 68 0 0 0-4-1 68 68 0 0 1 4 1l-1-1h-3 1v-1h4l-2-1 2-1v-1l-2 2v-3l-1 2v1l-2 1h1v-4h-1v4l-1 1-1 1-2 1Z" />
        <path
            d="m359 286 4-3-4 2v1Zm-14-7 1 1 1 1v-3 3l2 1h1l-1-2v-2 2l1 2 2 2 2 1-2-1-2-2v-2l-1-2v-1 5l-1-1v-1l-1-2v3-1l-2-1h-1l1 1v-1Z" />
        <path
            d="m344 280 2 1h1c-1 0-3 0-2 1h2l1 1 1-1-3 1-1 1h3l1-1 2 1a121 121 0 0 1 3 2v1h1l-1-2-3-1-1-1h-2l-3 1h1l3-1v-1l-2-1-2 1 2-1-3-2v1Zm8-1v3l1 1h2a40 40 0 0 0 0-3h-1l-1-1h-1v1-1a21 21 0 0 0 3 1c0 1 0 0 0 0v1l-1 1v1h1-1v-1h-1v-1h-1v-2Z" />
        <path
            d="M352 280v1l1 1h1v-2h-2a5 5 0 0 1 2 1v1l-1-1v-1h-1Zm-6 9h-1l3 1h2l2-1 3-1-1-1-4 3h-1a21 21 0 0 0-4-2v1h1Z" />
        <path
            d="m345 289 1 1 3 1v-1l-1 1h-1l-2-1v2h1s-2 0-2 2h1l2-2v3l1-3 1-1v4l1-2v-2l1-1 1-1 2-1-2 1-1 1h-1l-1 2v3-4l-2 1v2-2l-3 1h1l2-1-2-1 1 1h1l2-1v-1a11 11 0 0 0-2-1h-2Zm9-1 2 1v5l-1 1h-1l-1 2s0 1 0 0a16 16 0 0 0 2-1l1-1v2l1-2h-1l-1 1-2 1 2-2h1v-7h-2Z" />
        <path
            d="m356 297-1 1-1 1h1l1-1v2h1v-3 1h1v1h1v-1l-2-1v-2l1 1 2 1-3-3c-1 0-1 0 0 0l3 3-1-1h-1l-1-1h-1v1l1 1 1 1-1-1-1 1 1 1v1-2h-2v1-1l1-1c1 0 0 0 0 0Zm1-3v-5h1l1-1-2 1h-1v5h1Zm2-8v2l1 1a29 29 0 0 0 3 1h2l2-1-1 1h-2l-1 1h2l1 1 2-1-2 1 2 2v-1h-1l-1-1v2-1l-1-1-1-1h-1l1 2v2-2l-1-3v4l1 1v-4h-1l2 1v2l1 1v-3l1 1 1 1 1-1-3-1 2-1h-3l-1-1v1l2-1 2-1a1 1 0 0 0 0-1l-2 1-2 1h-1a30 30 0 0 1-3-2l-1-1v-1c0-1 0-1 0 0Z" />
        <path d="m359 288 2 1 2 2v-1l-2-1h-1l-1-1Zm-1 2v3h2l1 1v-3l-3-1 3 1v3-1a8 8 0 0 0-2 0v-2a65 65 0 0 0-1-1Z" />
        <path
            d="M359 291v2h2v-2h-1l-1-1v1h1v2l-1-1v-1s-1 0 0 0Zm2-5 1-1h1l1 1h1l-1 1h-2l-1-1s-1 0 0 0l2 2 1-1h1v-1l-1-1h-2l-1 1s0 1 0 0Z" />
        <path
            d="M362 286h2l-1 1h-1v-1h-1l1 1h2v-1l-1-1-1 1h-1 1Zm-13 1 1-1h1-1 1l1 1v-1l-2 1-1-1v1h1s0 1 0 0h2v-1h-1v-1h-1v1h-1v1Z" />
        <path d="M348 286h1l1-1h1v1l1 1 1-1-2-1h-1a12 12 0 0 0-2 1s0 1 0 0Z" />
        <path d="M348 287h1l1 1h1v-1h2v-1l-3 1v1-1h-1l-1-1v1Zm4 4 3-1h-1v3h-1l-1 1v-3 3h1l1-1h1v-3h-1l-2 1s0 1 0 0Z" />
        <path
            d="M353 293v-2c0 1 0 0 0 0h1v1l-1 1c-1 0 0 1 0 0h1v-1l1-1h-2v2Zm-52-179 1 1v-2 2h1l1-1h-1v1a2 2 0 0 0-1 2h1l2-2-2 2h-1v4h1l1 1a2 2 0 0 0-1-1v-4h1l1-2h-1l-2 2h1v-2l1-1-2 1h1l-1-2v2l-1-1c-1 0 0 1 0 0Zm0 1v-1 1Z" />
        <path
            d="M301 114v1l1 2-2-2h-1l1 1 1 1 1 2v2l-1 1c-1 0 0 0 0 0l1-1a15 15 0 0 0 0-3l-1-1v-1l-1-1 2 2a2 2 0 0 0 0-2l-1-1Zm3 5 1-1v2h-1a114 114 0 0 1-1-1l1 1v1l1-1 1-1v-1h-2v1Z" />
        <path
            d="M304 119h1v-1 1a3 3 0 0 0-1 1v-1 1a2 2 0 0 1 1 0v-2l-1 1Zm0 3 2-1 1-1a8 8 0 0 1 0-3v3h1l1-1v-1l-1-1 1 2 2-1h-1v1h-1l1 1-1-1a1 1 0 0 0-1 0l-1 1v1a7 7 0 0 1 3 0l-3-1v1a56 56 0 0 1 3 1v-1h-1l-2-1v1l1-1h2c1-1-1-1-1-1h1l1-1h-1l-1 1v-2l-1 1v1l-1 1 1-2-1-1v3h-1l-1 1-1 1Z" />
        <path
            d="m304 123 3-2v-1l-3 2v1Zm-10-5h1v1h1v-2h-1l1 1v1l1 1v-3 3l2 1 1 1h1l-2-1-1-1v-2l-1-1v3l-1-1v-1l-1-1v2h1l-2-1h-1 1Z" />
        <path
            d="m293 118 2 1s-2 0-1 1h3l-2 1h-1a17 17 0 0 0 3 0h1l2 1v1l1 1-1-2a144 144 0 0 0-3-2l-3 1h2l1-1-1-1h-2v1l1-1-1-1h-1Zm6 0v2h1l1 1v-1a19 19 0 0 0 0-1v-1h-2l2 1v2-1h-1v-1h-1v-1Z" />
        <path
            d="M299 118v2h2v-1l-1-1h-1v1a2 2 0 0 1 1 0v1h1-1v-2l-1 1v-1Zm-4 7h-1 2l2 1 1-1 2-1v-1l-3 2h-2l-2-1v1h1Z" />
        <path
            d="M294 125h1l2 1h-3v1h1c-1 0-2 0-1 1l2-1h-1v2h1a186 186 0 0 0 1-2v-1 3l1-1v-2h1v-1l2-1-2 1h-1l-1 1v3-3l-1 1-1 1v1l1-1c-1 0 0 0 0 0v-1h-1l-1 1 1-1v-1h-1l1 1h1l1-1-1-1h-2Z" />
        <path d="m301 124 1 1v3l-1 1-1 1v1a12 12 0 0 0 2-1v-1 2-2h-1l-1 1v1l1-2h1v-5h-1c0-1 0 0 0 0Z" />
        <path
            d="m302 130-1 1v1l1-1v2h1v-2h-1 1l1 1v-1l-1-1v-1h-1l2 1 1 1v-1l-2-2-1 1 3 2v-1h-1l-1-1h-1v1l1 1h1-2v2-2h-1v1-1h1v-1Zm1-2v-3h1v-1h-1l-1 1v3h1Zm1-6v2l1 1a20 20 0 0 0 2 1l1-1h2-1l-2 1h1l1 1 1-1-1 1 2 1-1-1h-1v2-2l-1-1h-1v3h1l-1-2v-1c0-1 0 0 0 0v2l1 1v-3h-1l1 1 1 1v1-2l1 1h1l-2-1 2-1h-4 2l1-1a1 1 0 0 0 0-1l-1 1h-3l-1-1-1-1v-1Z" />
        <path d="m304 124 1 1 2 1-2-1v-1h-1Zm-1 2v1l1 1h2v-2h-1l-1-1v1h1v2h1l-1-1h-1v-2l-1 1Z" />
        <path d="M304 126v2h1v-2h-1 1v1h-1v-1Zm2-3v-1h1l1 1h-1v1l-1-1h-1l2 1h1l1-1-1-1h-2l-1 1h1Z" />
        <path d="M306 123h2-2l1 1v-1h1l-1-1h-1v1Zm-9 0h2-2l1 1 1-1v-1h-2v1Z" />
        <path
            d="M296 123a9 9 0 0 1 2-1l1 1h1l-1-1h-2l-1 1Zm0 0 1 1h2l1-1h-2v1-1h-2Zm3 4 2-1v-1 2h-1v1h-1v-2 2h2v-3l-2 1v1Z" />
        <path
            d="M300 128v-2 1l1-1h-1v1l-1 1h1l1-1v-1h-2v2h1ZM210 27h1v-1 1s1 0 0 0v2l1-1c0-1 0 0 0 0l-1 1v3h1c0 1 0 0 0 0a1 1 0 0 0-1 0v-3a7 7 0 0 0 2-1v-1l-1 1-1 1v-2h1-1v-1h-1v1h1-2 1Zm0 0Z" />
        <path
            d="M209 27h1v2h1l-2-2v1l1 1v3l-1 1h1l1-1a10 10 0 0 0-1-3l-1-1a6 6 0 0 1 1 1h1a2 2 0 0 0-1-2s-1 0 0 0h-1Zm3 3h1v1h-1v-1 1h1v-2l-1 1Z" />
        <path d="M212 30h1v1h-1v-1 1h1v-1h-1Z" />
        <path
            d="m212 33 1-1h1v-3 2h1v-2a8 8 0 0 1 0 1h2-2v1h1-2l1 1h1-1l-1-1h2l-1-1v1l1-1h1-2a7 7 0 0 0 0-1v2h-1v-2 2h-1v1h-1s0 1 0 0v1Z" />
        <path d="m212 33 2-1v-1l-2 2Zm-8-3h2v-1 1l1 1v-2 2l1 1 1 1-1-1-1-1v-2 2h-1v-2 1l-1-1-1 1Z" />
        <path
            d="M204 30h1l-1 1h2l-1 1h2l2 1v1h1l-1-1v-1h-1l-1-1-1 1a9 9 0 0 1-1 0 13 13 0 0 1 1-1h-2 1v-1h-1Zm4 0v1h1l1 1v-2h-2v-1 1-1l1 1h1v1h-1l-1-2v1Z" />
        <path d="M209 30v1-1s-1 0 0 0v1-1Zm-4 5v-1l1 1h2v-1h2l-3 1h-1a17 17 0 0 0-1-1v1Z" />
        <path
            d="M205 35h2l-1 1h-1v-1l-1 1h1l-1 1 2-1v1-1h1v2-2l1-1 2-1-2 1h-1v3-2h-1v2-1h-2l1-1c-1 0 0 0 0 0h1a9 9 0 0 0 1 0 6 6 0 0 0-2-1Zm5-1v4l-1 1 1-1h1-1v1h1a7 7 0 0 1 0-1h-1l-1 1a3 3 0 0 1 1-1v-4Z" />
        <path
            d="M210 39v1-1 1h1s0 1 0 0v-1l1 1v-1h-1v-1h1l1 1-2-2 1 2v-1l-1-1v2h1-1v1-1h-1v1-1h1-1Zm1-2v-2l1-1-1 1v2Zm1-4v1l1 1h3v-1 1h-2l1 1h2v-1l-1 1 1 1h-1v-1 1h-1v-1h-1v1l1 1-1-1v-2 2l1 1v-2h-1 1v1h1v-1 1h1l-1-1h1v-1l-1 1h-1l-1-1h2v-1 1h-3l-1-1v-1Z" />
        <path d="m212 34 1 1h1-1l-1-1Zm0 1v2h1v-2h-1l1 1v1h-1v-2Z" />
        <path d="M212 36v1h1v-1h-1 1v1h-1v-1Zm1-3h1v-1 1h1l-1 1-1-1 1 1 1-1h-1v-1l-1 1Z" />
        <path d="M213 33h2-1v1-1h-1l1 1v-1h1-2Zm-6 0h1l-1 1v-1 1h1v-1h-1c-1 0 0 0 0 0Zm-1 0h3-1v-1h-1v1h-1Z" />
        <path
            d="m206 33 1 1h1l1-1-1 1h-1l-1-1Zm2 3 2-1v1c-1 0-1 0 0 0l-1 1h-1v-1 1h2v-2l-2 1Zm1 1v-1 1-1 1Zm107 427 2 1v-3 3h1l1-1-1 1-1 1v2h1l3-3-3 3h-1v6h1l2 1c0 1 0 0 0 0l-1-1h-1v-6h1l2-3h-1l-2 3v-3l2-1c-1-1-2 0-3 1h1l-1-3v3c-1-1-1-2-2-1Zm0 0Z" />
        <path
            d="m316 464 1 1 1 3c-1-2-2-3-4-3l1 1 2 2 1 3v3l-2 1c-1 0 0 1 0 0l2-1a22 22 0 0 0 0-5l-1-2-1-1-2-1 4 3a3 3 0 0 0-1-3l-1-1s0-1 0 0Zm5 6a12 12 0 0 1 2-1v3h-1l-1 1v-3h-1v3h1l2-1v-3h-1l-2 1h1Z" />
        <path
            d="m321 471 1-1v1a5 5 0 0 0-1 1v-2 2a4 4 0 0 1 1 0v-1h1v-1l-1-1-1 1v1Zm0 4 2-1 1-1h1v-1a14 14 0 0 1 1-4h-1v4h2l1-1v-3 3l3-1-1-1-2 2 2 1-1-1h-2v1l-2 1h1a12 12 0 0 1 2 1h2l-2-1h-2l1-1h3c1-1-1-1-2-1l2-1 1-1h-1l-2 2v-3l-1 2v1l-2 1h1v-4h-1a15 15 0 0 0 0 4l-1 1-1 1-2 1c-1 0 0 1 0 0Zm0 1 4-3-4 3Zm-15-7 1 1 1 1v-3 3l3 1-1-2 1-2-1-1 1 3v3l2 1 3 2v-1l-2-1-2-2-1-2v-3h-1v5h1l-2-1v-2l-1-1v3-1l-2-1h-1 1Z" />
        <path
            d="m305 470 3 1v-1c-1 1-3 1-2 2h2l2 1v-1l-3 1-1 1h3l2-1 1 1 2 1 1 1 1 2s1 0 0 0l-1-3a156 156 0 0 0-5-2l-4 1h1l3-1v-1l-2-1h-2v1l2-1v-1l-3-1v1Zm8-1v2l1 1 1 1h2a19 19 0 0 0 0-3h-1l-1-1h-2c1 0 1 0 0 0h1-1a23 23 0 0 0 3 1v3l-1-1h-1v-3h-1Z" />
        <path
            d="M314 470v2h1l1 1v-3h-2a4 4 0 0 1 1 0v1h1l-1 1h1-1v-1h-1v-1Zm-7 9h-1l3 1 2 1 3-2 2-1v-1l-5 3h-2l-3-1v1l1-1Z" />
        <path
            d="m306 479 2 1 2 1h-1l-1 1-2-1v1l1 1v-1l-2 2h1l2-1v2h1v-2l1-1h1l-1-1v5h1v-4l1-1 1-1h1l2-2-3 1-1 1-1 1v2l-1 3v-1l1-4h-1l-2 1v3-2l-3 1h1c-1-1 1-1 2-1v-1l-2-1v1h3l1-1a11 11 0 0 0-2-1l-1-1h-1Zm10-1 2 1h-1v6l-1 1-2 2h1a17 17 0 0 0 2-2h1v-1 3-3l-2 1-2 2h1l1-2 1-1h1v-6l-2-1Z" />
        <path
            d="m318 488-2 1v1h1l1-1v2h1v-3l-1 1h1l1 1h1v-1l-2-1v-3l-1 1 2 1 2 1-3-3h-1l4 3v-1h-2l-1-2h-1v2l1 1 1 1-1-1h-1l1 2v1l-1-1v-1s0-1 0 0h-2 1l1-1Zm1-3v-6 1-1h1l1-1-2 1h-1v6h1Zm2-9v2l1 1a33 33 0 0 0 3 2l2-1 2-1h1l-1 1h-1l-2 1 1 1h1l3-1h-1l-1 1v1l2 1-1-1h-2v2h1l-1-2v-1l-2-1v5-3l-1-2 1 3v2-5 1l2 1v2h1v-2h-1l2 1h1l-2-2v1l2-2h-5l2-1h2a1 1 0 0 0 0-1h-2l-2 1h-1l-1-1-2-1-1-1v-1c0-1 0-1 0 0Z" />
        <path d="m320 479 3 1 2 1-2-1-1-1-1-1-1 1Zm0 2v3h2l1 1v-4l-3-1v1h3v3a8 8 0 0 0-2-1v-1l-1-2v1Z" />
        <path
            d="m320 481 1 2 1 1h1v-3h-2c-1 0 0 0 0 0l1 1s0-1 0 0v1h-1v-2h-1Zm3-4 1-1 1-1 1 1 1 1v-1l-1 1h-1v1l-1-1-1-1v1l2 1h1l1-1v-1h-1v-1h-2l-1 1v1Z" />
        <path
            d="m324 477 1-1h1v1-1l-1 1h-1v-1h-1v1h1l1 1v-1h1l1-1h-3v1Zm-14 0 1-1h1l1 1h-2l-1-1v1h1l1 1 1-1v-1h-1v-1l-1 1h-1v1Z" />
        <path d="m309 477 2-1 1-1v1h1l1 1v-1l-1-1h-3l-1 1v1Z" />
        <path
            d="m309 477 2 1h2l1-1v-1l-2 2h-1v-1l-2-1v1Zm5 5 2-1v-1 3h-1v1h-1v-2h-1v2l1 1 1-1h1v-4l-2 2c-1 0 0 0 0 0Z" />
        <path
            d="m315 484-1-1v-1h2v-1l-1 2h1l-2 1 2-1v-2h-2v3h1Zm443-334 2 1v-3 3h1l1-1-1 1-1 1v2h1l3-2v-1l-3 3-1 1v5l1 1 1 1 1-1h-1v-1h-1v-5l1-1 2-2v-1l-1 1-3 2h1v-2l2-2h-1c-1-1-1 0-2 1h1l-1-3v3c-1-1-1-2-2-1-1 0 0 0 0 0Zm0 0Z" />
        <path
            d="M758 150c-1 1 0 1 1 1l1 3-4-3 1 2 2 1 1 3v3l-2 1v1l2-2a22 22 0 0 0 0-5l-2-2-1-1-1-1v1l4 2a3 3 0 0 0-1-3l-1-1Zm5 6a12 12 0 0 1 2-1v3h-1l-2 1h1v-3h-1v3h1l2-1v-3h-1l-2 1h1Z" />
        <path
            d="m763 157 1-1v1l-1 1v-2 3a4 4 0 0 1 1-1l1-1v-1h-2v1Zm0 5 2-2h1l1-1v-1a14 14 0 0 1 1-4h-1v5l2-1v-1l1-2v-1 3l3-1h-1l-2 1v1h2-1l-2-1v1l-2 1a11 11 0 0 1 3 1l1 1v-1a79 79 0 0 0-4-1v1a82 82 0 0 1 5 1l-2-2h-3 1l1-1h2l1 1-2-2v1l2-2 1-1h-1l-2 2v-3l-1 2v1l-2 1 1 1v-5h-1v4l-1 1-1 1-2 1v1Z" />
        <path
            d="m763 162 4-2v-1l-4 3c-1 0 0 0 0 0Zm-15-6h1l1 1v-3 3l2 2 1-1-1-2v-2l1 3v2l2 1 2 2 1-1-3-1-2-2v-4l-1-1v5h1l-2-1v-1l-1-2v3-1l-2-1h-1l1 1Z" />
        <path
            d="m747 156 3 1c-1 0-3 0-2 1h2l2 1v-1l-3 1-1 1s0 1 0 0h6l2 2 1 1 1 1-1-2a155 155 0 0 0-5-3l-4 1h1l3-1v-1l-2-1-2 1 2-1-3-2v1Zm8 0v1l1 1v1h2v1-1a20 20 0 0 0 1-2l-1-1h-1l-1-1h-1v1-1 1a21 21 0 0 0 3 1v2h-1v-1h-1v-2h-1Z" />
        <path d="M756 156v2h1l1 1v-2l-1-1h-1l1 1v2l1-1h-2v-2Zm-7 10v-1h-1l3 1 2 1 3-1 2-2s0-1 0 0l-5 2h-2l-3-1v1h1Z" />
        <path
            d="M748 166h1l3 1-1 1h-1l-2-1-1 1h1l1 1s-2 0-2 2h1l2-2v3l1-3v-1h2-1v4h1v-5h2l1-1 2-1v-1l-3 2h-1l-1 1v2l-1 3 1-4h-1l-2 1v2-2l-3 1h1l2-1-2-1h2l2-1a11 11 0 0 0-2-1h-2Z" />
        <path
            d="m758 165 2 1-1-1v6l-1 1a8 8 0 0 0-2 2l1 1 1-2h1l1-1v2c0 1 0 1 0 0v-2l-2 1-2 1h1l1-2h1l1-1v-6l-2-1v1Z" />
        <path
            d="m760 174-2 1v1h1l1-1v2l1 1v-3h-1 1l1 1h1l-1-1-1-1-1-1 1-1h-1l2 1 2 1-3-3h-1l4 3-1-1h-1l-1-2-1 1v1l1 2h1v1l-1-1v-1l-1 1v2-2l-1 1h-1 1v-1l1-1Zm1-3v-5l1-1h1l-1-1-1 1h-1v6h1Zm2-9v2l1 1 2 1 1 1 2-1h2v-1 1h-1l-2 1 1 1h3v-1l-1 1v1l2 1-1-1h-2v2h1l-1-1v-1l-2-2v5-3l-1-2v4l1 1v-4l1 1 1 1v1h1v-2h-1l2 1h1l-2-2v1l2-1v-1l-2 1h-1l-2-1h2l2-1a1 1 0 0 0 0-1h-2l-2 1h-2l-2-2-1-1v-1Z" />
        <path
            d="m762 165 2 1 3 1-2-1-1-1h-2Zm0 2v3h1l2 1v-4h-3c0-1 0 0 0 0l3 1v3-1a8 8 0 0 0-2 0v-1c-1 0 0 0 0 0v-1l-1-1c0-1 0 0 0 0Z" />
        <path
            d="m762 168 1 1v1h2v-2h-1v-1h-1v1h1v2-1h-1v-1h-1Zm3-5 1-1 1-1v1h1l1 1h-1l-1 1-1-1h-1c0-1-1 0 0 0l2 1h1l1-1-1-1-1-1h-1l-1 2c-1 0 0 0 0 0Z" />
        <path
            d="m766 163 1-1 1 1h-3 1l1 1h1a24 24 0 0 0 0-1v-1h-2l-1 1h1Zm-14 0h1v-1h1v1h1a5 5 0 0 0-1 0h-2c0-1 0 0 0 0l1 1h1l1-1v-1h-2l-1 1Z" />
        <path
            d="m751 163 1-1h3l1 1-1-1-1-1h-1l-1 1-1 1Zm0 0 1 1h1l1 1v-1a8 8 0 0 1 2-1 9 9 0 0 0-2 1h-1l-2-1Zm5 5 2-1v2l-1 1-1 1v-3h-1v2l1 1h1l1-1v-3s0-1 0 0l-3 1h1Z" />
        <path
            d="M756 170v-2h1a3 3 0 0 0 1 0l-1 1h1l-2 1 2-1v-2a3 3 0 0 1-2 1v2Zm105 15h1v-1h1v1s1 0 0 0v2l1-1c1 0 1 0 0 0l-1 1v4h1l-1-1v-3h1l1-1v-1l-1 1-1 1v-2h1-1l-1-1v1h-1Zm0 0Z" />
        <path
            d="M861 185h1v2l-2-2v1h1l1 1v3a2 2 0 0 0-1 1l1-1a12 12 0 0 0 0-3h-1v-1l-1-1a6 6 0 0 1 2 2v-2h-1Zm3 3h1v1l-1 1v-2 2l1-1v-1h-1Z" />
        <path d="m864 189 1-1v1h-1v-1 1h1v-1h-1s0 1 0 0v1Z" />
        <path
            d="m864 191 1-1h1v-1a6 6 0 0 1 1-2h-1v3l1-1h1v-2 2l1-1-1 1h1-2l-1 1a5 5 0 0 1 2 0l1 1-1-1h-2l1-1h1l1 1-1-1 1-1-1 1v-2l-1 1v1l-1 1v-3 3h-1l-1 1Z" />
        <path
            d="m864 192 2-2a24 24 0 0 1-2 2Zm-9-4h1l1 1v-2 1l1 2v-3 2l1 1h1l1 1-1-1-1-1-1-1a8 8 0 0 0 0-1v3-1h-1v-2 2-1h-2Z" />
        <path
            d="m855 188 2 1h-2 2l1 1h-2v1l1-1h2l1 1 1 1v1-1l-1-1h-1l-1-1h-1a14 14 0 0 1-1 0h1a12 12 0 0 1 1 0l-2-1h-1 1c1 0 1 0 0 0l-1-1Zm5 0v2h1v-2h-1 1v2-1h-1v-1Z" />
        <path d="M860 188v1h1v1-2h-1 1v2-1h-1v-1Zm-4 6v-1l1 1h2l1-1h1v-1l-2 2h-2a20 20 0 0 0-1-1v1-1 1Z" />
        <path
            d="M856 194h2l-1 1h-1l-1-1v1h1l-1 1h2v1-1l1-1v2-2h1v-1h1l1-1-1 1h-2v3-2h-1v2-1h-2l1-1c-1 0-1 0 0 0h2v-1a6 6 0 0 0-2 0c0-1 0 0 0 0Zm5-1h1v4h-1l-1 1s0 1 0 0h1l1-1v1a8 8 0 0 1 0-1l-1 1h-1l1-1h1v-4h-1Z" />
        <path
            d="m862 198-1 1h1v1h1v-1h1l-1-1h-1l1-1 1 1h1l-2-2-1 1 2 1h-1v-1h-1v1h1v1c1 0 1 0 0 0v-1l-1 1h1v1h-1v-1h-1 1v-1Z" />
        <path
            d="M863 197v-3c0-1 0 0 0 0v-1h1-1l-1 1v3h1Zm1-5v1a26 26 0 0 0 3 1h2v-1 1h-2l1 1h1-1l2 1h-1l-1-1v2-2h-1v2-1l-1-2 1 2v1-2h1v2-2l1 1h1l-2-1a6 6 0 0 0 1 0h-1l-1-1h2v-1l-1 1h-3l-1-1v-2 1Z" />
        <path d="m864 193 1 1 1 1v-1h-1l-1-1Zm-1 1 1 1v1h1v-1l-1-1s-1 0 0 0l1 1v1h-1v-2s-1 0 0 0h-1Z" />
        <path d="M864 195v1h1v-1h-1 1v1h-1v-1Zm1-3 1-1h1v1l-1 1-1-1 1 1h1l1-1h-1v-1h-1l-1 1Z" />
        <path d="M866 192h1-2 1v1-1h1l-1-1v1h-1 1Zm-8 0h2-2l1 1v-1h1-1v-1 1h-1Z" />
        <path d="M857 192h1v-1h1v1h1l-1-1h-1l-1 1Zm0 0 1 1h1v-1h1l-1 1-1-1h-1Zm3 3 1-1v2h-1v-1 2-1h1v-2l-1 1Z" />
        <path
            d="M860 196v-1h1v1h-1 1v-1h-1v1Zm93-145h2v-1 1h1-1v2l1-1c1 0 1 0 0 0l-1 1v4h1-1v-4a6 6 0 0 0 2-1h-1l-1 1v-1l1-1h-1v-1h-1v1h1-2Zm0 0Z" />
        <path
            d="M953 51h1v2a7 7 0 0 0-2-2v1l1 1h1v4h-1 1v-1a12 12 0 0 0 0-2v-1l-1-1-1-1a7 7 0 0 1 2 2 2 2 0 0 0 0-2h-1Zm3 3h1v1l-1 1v-2 2l1-1v-1h-1Z" />
        <path d="m956 55 1-1v1h-1v-1 1h1v-1h-1s0 1 0 0v1Z" />
        <path
            d="m956 57 1-1h1v-1l1-2v1l-1 2h1v-1h1v-2 2l1-1-1 1 1 1-1-1h-1v1a5 5 0 0 1 1 0l1 1-1-1h-1l1-1 1 1-1-1 1-1-1 1v-2l-1 1v1l-1 1 1-2v-1h-1v3h-1l-1 1Z" />
        <path
            d="m956 58 2-2a23 23 0 0 1-2 2Zm-9-4h1l1 1v-2 1l1 2v-3 2l1 1 1 1h1-1l-1-1v-2a9 9 0 0 0-1-1v3l-1-1v-2 2l-1-1h-1Z" />
        <path
            d="m947 54 2 1h-1 1l1 1h-2v1l1-1h2l1 1 1 1v1-1l-1-1h-1l-1-1a11 11 0 0 1-2 0h2l-1-1h-1 1l-2-1Zm5 0v1l1 1h1v-2h-2 2v2h-1v-1h-1v-1Z" />
        <path d="M952 54v1h1v1-2h-1 1v2-1h-1v-1Zm-4 6v-1l1 1h2l1-1h1v-1l-2 2h-2l-1-1v1Z" />
        <path
            d="M948 60h2l-1 1h-1c-1 0-1 0 0 0h1l-2 1h2v1-1l1-1v2l1-1v-2h1l1-1-1 1h-1l-1 2v1-2h-1v2-1h-2 2v-1h-1s-1 0 0 0h2v-1h-2Zm5-1h1v4h-1l-1 1v1l1-1h1v-1 2-2 1h-2v1l1-2h1v-4h-1Z" />
        <path
            d="M954 64v1h-1 1v1h1v-1h1l-1-1v-1l1 1h1l-2-1 2 1h-1l-1-1v2h1-1v-1 2-1h-1l1-1h-1Zm1-1v-3l1-1h-1v1a24 24 0 0 1 0 3Zm1-5v1h1l1 1h3v-1 1h-2l1 1h2-2l2 1h-1l-1-1v2-2h-1v2-1a14 14 0 0 0 0-2h-1l1 2v1-2h1v2-2 1h2l-2-1h2-2l-1-1h2v-1l-1 1h-2l-2-1v-1c0-1 0-1 0 0Z" />
        <path d="m956 59 1 1 1 1 1-1h-2v-1h-1Zm0 1v2h1v-1l-1-1 1 1v1h-1v-2Z" />
        <path d="M956 61a26 26 0 0 0 0 1h1v-1h-1 1v1h-1v-1Zm1-3 1-1h1v1h1-1v1h-1l-1-1 1 1h1l1-1h-1v-1h-1l-1 1Z" />
        <path d="M958 58h1-2 1v1-1h1l-1-1v1Zm-8 0h2-2l1 1v-1h1-1v-1 1h-1Z" />
        <path
            d="m950 58 1-1 1 1v-1h-2v1c-1 0 0 0 0 0Zm0 0v1h1l1-1-1 1-1-1s-1 0 0 0Zm2 3 1-1v2h-1v-1 2-1h1v-1l1-1h-1l-1 1Z" />
        <path
            d="M952 62v-1h1v1h-1 1v-1h-1v1Zm54 80h2v-2 2h1v-1l-1 1v3l3-2v-1l-2 2-1 1v4l2 1c0 1 0 0 0 0l-1-1-1-2v-1l1-1 1-1 1-1v-1l-1 1-2 1h1v-1l1-2-2 1v-2 2l-1-1h-1v1Zm0 0v-1 1Z" />
        <path
            d="m1006 141 1 1 1 2-3-2 1 1 1 2 1 2v2l-2 1s0 1 0 0l2-1a17 17 0 0 0 0-4l-1-1-1-1-1-1v1l3 2v-1a2 2 0 0 0-1-2h-1v-1Zm4 5h1v2h-1a48 48 0 0 1 0-2l-1 1 1 1h1l1-1v-2h-1l-1 1c-1 0 0 0 0 0Z" />
        <path d="m1010 147 1-1v1a4 4 0 0 0-1 1v-2 2h1v-2h-1v1Z" />
        <path
            d="m1010 150 2-1h1v-2l1-3-1 1v3l1-1h1v-2 2l2-1h-1l-1 1 2 1-1-1h-2l-1 1v1h3a66 66 0 0 0-3-1v1a44 44 0 0 1 4 1v-1h-2l-2-1h1l1-1 1 1h1l-1-1 1-1v-1l-2 1 1 1-1-2v-1 2l-1 1-1 1h1v-4h-1v4h-1l-1 1-1 1Z" />
        <path
            d="m1010 151 3-2v-1l-3 2v1Zm-12-5h1l1 1 1-1-1-1v2l2 1v-4 2l1 2 1 1 2 1-2-1-1-1v-2l-1-2v4l-1-1v-1l-1-2v3-1l-1-1-1 1Z" />
        <path
            d="m998 146 2 1v-1l-2 2h1l1-1 2 1h-3v1h4l2 1 1 1v1h1l-1-2-3-1-1-1h-1l-2 1 3-1-2-1h-2 2v-1l-2-1v1Zm6 0v2h1l1 1 1-1v-2h-2v-1h-1v1-1 1a19 19 0 0 0 2 1v2-1h1-2v-2l-1-1v1Z" />
        <path
            d="M1005 146v2h1v-2h-1c-1 0 0 0 0 0l1 1v1-1h-1v-1Zm-6 7 2 1h2l2-1 2-1h-1l-3 2h-1l-1-1a23 23 0 0 0-2 0v1-1Z" />
        <path
            d="m999 153 1 1 2 1v-1l-1 1h-1l-1-1-1 1h1l1 1v-1l-2 2 2-1v2h1v-3h1v3l1-2v-1l1-1h1l1-1v-1l-2 1-1 1h-1v4-3l-2 1v2-2l-2 1 2-1v-1h-1 3v-1h-1l-2-1Zm7 0h2-1v5h-1l-1 2a12 12 0 0 0 2-1l1-1-1 2h1v-2h-1l-2 2 2-2 1-1v-4l-1-1-1 1Z" />
        <path
            d="m1008 160-2 1h2v1c0 1 0 1 0 0l1-1-1-1 1 1h1v-1h-1l-1-1v-1l2 1 1 1v-1l-3-2v1l3 2v-1h-1l-2-1v2a3 3 0 0 1 1 1v-1h-1a5 5 0 0 1 0 2v-2l-1 1 1-1s0-1 0 0Z" />
        <path
            d="M1008 157v-4h2v-1l-2 1v4c0 1 0 1 0 0Zm2-6v1l1 1a49 49 0 0 0 2 1h2l1-1h1-1l-1 1h-1v1h3-1v1l2 1-1-1h-2l1 2v-2h-1l-1-1v3-4l-1 1v2l1 1v-3l1 1v1l1 1v-2l1 1h1l-2-2v1l2-1h-3l-1-1v1l2-1h1a1 1 0 0 0 0-1h-1l-2 1h-1l-1-1-1-1h-1l1-1h-1Z" />
        <path d="m1010 153 1 1 2 1v-1l-1-1h-1l-1-1v1Z" />
        <path d="M1009 154v2h1l1 1h1v-3h-3l2 1v2h1l-1-1h-1v-2h-1Z" />
        <path d="M1010 155v1l1 1v-2l-1-1v1h1v1h-1v-1h-1 1Zm2-4 1-1 1 1h1-1l-1 1h-1v-1h-1l2 1h1l1-1-1-1h-1l-2 1h1Z" />
        <path d="M1012 151h2-1v1-1h-1v1h2v-1l-1-1v1h-1Zm-10 0h2l-1 1v-1h-1v1h2v-1l-1-1-1 1c-1 0-1 0 0 0Z" />
        <path d="M1001 151h1l1-1 1 1h1c0 1 0 0 0 0l-1-1h-2l-1 1Z" />
        <path
            d="m1001 151 1 1h1v1-1a7 7 0 0 1 2-1l-2 1h-1l-1-1Zm4 4 2-1h-1v2l-1 1h-1 1v-2h-1v2l1 1v-1h1v-1h1v-2h-1l-2 1h1Z" />
        <path
            d="M1005 157v-2h1v1h-1v1l1-1v-1h-1v2ZM18 79l3 2h1v-5 5l3-2-2 2-1 1v4h1l2-3 2-1c1 0 1 0 0 0v1l-3 2-2 2v7l1 2h1l2 2-1-2h-2V86l2-1 3-3v-1l-2 1-4 3h1v-3l3-3c-2-1-3 1-4 1l1 1-1-5h-1v5h1c-1-1-3-3-4-2 0 0 0 1 0 0Zm0 1v-1 1Z" />
        <path
            d="M18 79c-1 1 1 2 2 2 1 1 2 3 1 5l1-1a19 19 0 0 0-7-4l1 1 2 2 2 2 1 1v8l-1 1a7 7 0 0 0-2 2l3-2h1a35 35 0 0 0-1-9l-2-2-2-2-1-2-1 1c3 1 5 2 6 4h1a5 5 0 0 0-2-5l-2-2Zm8 10 2-1h1v4h-1l-2 2v-5h-1v5h1l3-2v-4c1 0 1 0 0 0l-1-1-3 2h1Z" />
        <path
            d="m26 90 3-1h-1v2l-2 2v-3c0-1 0-1 0 0v3l2-1 1-1v-2l-1-1-2 2Zm0 8 4-2 1-2 2-1v-3l1-4h-1v7l3-1 1-1v-5 4l1 1 4-3h-1c1 1-3 3-3 3l3 2-2-1-2-1-2 1-2 2h1a17 17 0 0 1 4 1l2 1-2-1-4-1 1-1 2-1h2l2 1-3-2 3-1 1-2h-1l-4 2h1l-1-4-1 3v2l-3 2h1v-7h-1a26 26 0 0 0-1 7l-1 1-2 1-3 2v1Z" />
        <path
            d="m26 99 7-4v-1l-7 4v1ZM1 88c1-1 2 1 3 1l2 1v-4H5l1 1v3l3 3h1l-1-4v-4l1 5 1 3 2 3 5 2-4-3-3-2-1-4a26 26 0 0 0-1-4v8l1-1-3-1-1-3s1-2-1-2l1 4-4-2H1Z" />
        <path
            d="m1 88 4 3v-1c-1 0-4 1-3 2h3l3 1-4 1c-1 1-2 1-1 2l4-1h3l2 1 4 2 2 1v3h1l-2-4-5-3-2-1H8l-5 2 6-3-3-2-4 1 1-1h2v-1l-4-2Zm13 0a27 27 0 0 0 1 4l1 1 2 1h1a26 26 0 0 0 0-4l-1-1a33 33 0 0 1-3-1h-1a35 35 0 0 0 5 2v3h-1v1h1-1l-1-1h-1l-1-1v-2l-1-2Z" />
        <path
            d="M15 89v3h1a53 53 0 0 0 2 1v-3h-1a8 8 0 0 0-2-1 8 8 0 0 1 3 1v3l-1-1-1-1v-2h-1ZM3 104l4 1c1 1 2 2 3 1l2-1 2-1 4-2v-1l-7 5H8a65 65 0 0 0-5-2v1-1Z" />
        <path
            d="m3 104 2 1 4 2-2 1H5l-3-1v1l1 1 2 1v-1c-2 1-5 1-4 3h1l4-2H5c1 1-1 3 1 4l1-4 1-1 2-1H9v7l1-4 1-2v-2l2-1 2-1 3-2v-1l-4 3-2 1-2 1v3l-1 4v-3l1-3-1-1-2 1-1 1v5-4H5l-4 2h1c-1-1 2-2 3-2v-1l-3-1h1l2 1h1a25 25 0 0 0 3-2 18 18 0 0 0-4-2l-2-1Zm15-1 3 1v9l-2 1-1 1-2 3v1a28 28 0 0 0 4-3l1-1v-1 4c0 1 0 1 0 0a20 20 0 0 1 1-4h-1l-2 2-3 2 3-3 1-1 1-1v-9l-2-2-1 1Z" />
        <path
            d="m21 118-2 2-1 1h2l1-1v3l1 1 1-2-1-3 2 1 1 1h1l-1-1-2-2-1-2v-2l3 3 3 1-6-5 6 5-2-1-1-1-3-2v3l1 2a7 7 0 0 1 2 1h-1v-1h-2v4-3a1 1 0 0 0-1-1l-2 2 1-1 1-1v-1Zm1-5v-9h2l2-1-3 1h-1v9Zm4-14v3l2 1a38 38 0 0 0 5 3h3l3-2h1v1h-2l-4 2 2 1 2 1c1 0 2-2 4-1v-1l-3 2v1l3 2-2-1-2-1v3l-1-2v-2l-3-1v7l1-1-1-2v-2l-1-3 1 5 1 3v-4l-1-3 3 2v2l1 2v-4l2 1 2 1-3-3v1l3-2v-1l-3 1h-2l-3-1 4-1 3-1a1 1 0 0 0 0-1h-3l-3 2-3-1a36 36 0 0 1-5-2l-1-2 1-2h-1Z" />
        <path d="m25 103 4 2 4 2-4-2-2-1-1-1h-1Zm0 3v5l2 1 2 1 1-1-1-5-4-1 4 2v-1 5h1a13 13 0 0 0-3-1h-1v-2l-1-3Z" />
        <path
            d="M26 108v3h3v-3l-1-1h-2v1h2v3l-1-1-1-3-1 1h1Zm4-8 1-2h2l2 1 1 1-2 1h-1l-1 1-3-3v1l3 2 2-1a65 65 0 0 0 2-1l-1-2h-1l-1-1-2 1a110 110 0 0 0-2 2h1Z" />
        <path
            d="m31 100 2-1h1l1 1h-2v1h-1a6 6 0 0 1-2-2v1l1 1h3a27 27 0 0 0 1-1l-1-1-1-1-1 1h-2l1 1Zm-22 0 2-1h1l2 1-3 1h-1l-1-1c0-1-1 0 0 0l1 1h1v1l1-1a8 8 0 0 1 2-1l-1-1-1-1-1 1h-1l-2 1h1Z" />
        <path
            d="M8 100a27 27 0 0 1 3-2h1l1 1 2 1s1 0 0 0l-2-2-1-1h-2l-1 1-2 1 1 1Zm-1 0 2 2h2v1l1-1a12 12 0 0 1 3-2c1 0 0 0 0 0l-3 2h-1l-1-1-2-1H7Zm8 8 4-2h-1v5h-2l-2 1h1v-4h-1v4l1 1 1-1 2-1v-1l1-4h-1l-4 2h1Z" />
        <path d="M16 111v-3h2l-1 2h1l-3 1v1l3-2v-3l-2 1h-1v3h1Zm410 154 1 1v-1 1-1 1h1-1v2-2h1-1v-1 1-1 1-1h-1Zm0 0Z" />
        <path d="M426 265v1s1 0 0 0h1-1l1 1v1h-1 1v-1l-1-1h1-1v-1Zm1 2h1-1c0 1 0 1 0 0h1v-1l-1 1Zm0 0h1-1 1-1Z" />
        <path
            d="M427 268h1v-2 1h1v-1 1h1-2v1h1-1 1l-1-1v1l1-1h1-1v-1 1h-1v-1 2h-1Zm0 0h1a11 11 0 0 1-1 0Zm-3-1v-1 1h1v-1 2h1-1v-2 1h-1v-1 1h-1 1Z" />
        <path d="M423 267h1s-1 0 0 0h1l-1 1h2v1-1h-2l1-1h-2Z" />
        <path
            d="M425 267h1v1-1h-1 1c0-1 0-1 0 0h-1Zm1 0Zm-2 2h2-2Zm0 0 1 1v-1l-1 1v-1 1s-1 0 0 0v1-1h1v1-2h1-1v2-1h-1v1-1h1v-1h-1Zm2 0v2h1-1 1-1l1-1v-1h-1Z" />
        <path
            d="M427 271h-1v1h1c-1 0-1 0 0 0v-1 1-1h1l-1-1v1h-1 1s0 1 0 0v1-1h-1v1-1c1 0 0 0 0 0h1Zm0-1v-1 1c0 1 0 1 0 0Zm0-2v1a9 9 0 0 0 1 0h1-1v1h2-1 1-2v1-1c1 0 1 0 0 0v-1 1l1 1v-1h-1 2-1 1-1l-1-1v1l1-1h-2v-1Z" />
        <path d="M427 269h1v1-1h-1Z" />
        <path d="M427 269v1h1l-1-1 1 1h-1v-1 1-1Z" />
        <path d="M427 270h1c0-1 0-1 0 0h-1c0-1 0-1 0 0h1-1Zm1-2h1l-1 1v-1 1l1-1h-1Z" />
        <path d="M428 268h1-1v1-1 1h1v-1h-1Zm-3 1v-1 1-1 1-1 1h1l-1-1v1Z" />
        <path d="m425 268 1 1v-1h-2s0 1 0 0h1Z" />
        <path
            d="M424 269h1l1-1-1 1v-1s-1 0 0 0l-1 1Zm2 1v-1 1h-1 1v-1l-1 1h1Zm0 0c-1 0 0 0 0 0Zm278 163c2-2 4 1 5 2v-7 1c2 0 1 5 1 6l4-3-2 2-2 2v6h1a60 60 0 0 1 6-6h1l-1 1-4 4-3 2v11l1 2 2 1 2 2c-1-2-2-3-4-3l-1-4v-5l1-4 3-2 5-5c-1-1-3 0-3 1l-6 4h1v-5l4-4h-1c-2-1-3 2-4 2v1-5l-1-2v7c-1-1-3-4-5-3v1Zm0 0v-1 1Z" />
        <path
            d="M704 432v1l3 2c2 2 2 4 2 7v-1a27 27 0 0 0-9-6l1 2 3 3 3 2 2 4v9l-1 1a10 10 0 0 0-4 3l5-3v-12l-4-4-2-2-2-2h-1c4 1 6 3 9 6a7 7 0 0 0-2-7l-3-2v-1Zm11 15 3-2h2v6h-1l-4 2v-7l-1 3 1 4 5-2v-6l-1-1-4 2v1Z" />
        <path
            d="m716 448 3-2v2l-1 1v1l-3 2h1v-5h-1v5h1a9 9 0 0 1 2-2h1v-4l-4 2h1Zm-1 11 6-3 2-2 2-1v-2a32 32 0 0 1 1-9v10l3-2 1-1 1-6a35 35 0 0 1 1 6l6-4h-1c1 1-4 4-5 4v1c1 0 5 1 4 2h1l-4-2a3 3 0 0 0-4 1l-3 2v1a25 25 0 0 1 7 1l2 2c0-2-2-2-3-2l-6-2v1l2-2 3-2 3 1 3 1c0-2-3-3-5-3l1 1 4-3 1-2-6 3v-6c-2 0-2 3-2 4v1l-1 3-3 2 1-6-1-4a36 36 0 0 0-1 10l-3 2-2 1-5 3v1Z" />
        <path
            d="m716 460 9-6a89 89 0 0 1-10 6h1Zm-36-15c1-1 3 1 4 1l2 2h1l-1-3v-2c1-1 1 3 1 4 0 3 3 4 5 5l-1-6c0-1-1-4 1-5h-1l2 7 1 4c0 2 2 3 4 4l6 3-6-3-4-4-1-6a36 36 0 0 0-1-5h-1v4l1 7v-1l-3-2c-2-1-2-2-2-4 0-1 1-3-1-3v6h1l-5-4-2 1Z" />
        <path
            d="m680 446 5 3v-1s-5 1-4 3l5-1c2 0 3 1 4 3v-1l-6 2-2 2h1l6-1 3-1 3 2 6 3 2 2 2 3c0 1 0 1 0 0l-1-4-3-2a451 451 0 0 0-8-4h-4a61 61 0 0 1-6 2v-1l3-1 5-1v-1l-6-2h-3l-1 1 1-1 1-1h3v-1l-6-3v1Zm18-1a44 44 0 0 0 1 6l2 1 3 2h1v-1a37 37 0 0 0 1-5l-2-1a58 58 0 0 1-5-2h-1c1 0 0 0 0 0h1l1 1 3 1h2v7-1h-1l-2-1-1-1h-1l-1-6h-1Z" />
        <path
            d="M700 447v3l2 1a25 25 0 0 0 2 1v-4l-1-1a13 13 0 0 0-3-1v1a11 11 0 0 1 4 1v4l-2-1-1-1v-1l-1-2c0-1 0-1 0 0Zm-17 21v-1l-1 1 6 2c2 0 4 2 5 1l3-1 3-2a961 961 0 0 0 5-4l-10 6h-4l-2-1a76 76 0 0 0-6-2v2l1-1Z" />
        <path
            d="M682 468c1 2 2 1 3 2l6 2v-1l-3 2h-3l-4-1v1l1 1 3 2v-1c-2 1-6 2-5 4l1 1 5-4c0 2-2 5 1 6l1-6c0-2 2-2 4-3l-1 7v3h1l1-5v-3l1-3 3-2 2-1 6-3-1-1-6 4-2 1-3 2v4l-2 7h1v-10l-3 1-2 1v3l-1 4 1-1-1-3v-2l-6 3h1c-1-2 3-3 4-3v-1l-3-2c-1 0-1-1 0 0h1l2 1h2a34 34 0 0 0 4-2v-1a23 23 0 0 0-6-2l-2-1h-1Z" />
        <path
            d="m705 466 2 1 1 1v11l-1 3-2 1-4 5a43 43 0 0 0 5-4l3-1v-1l-1 6h1a28 28 0 0 1 0-6l-4 2-4 4 4-4 2-2 1-1v-14l-3-2v1Z" />
        <path
            d="m709 488-4 3-1 1h2l2-1v-1h1v5l1 1 1-3-1-4 2 2 2 1h1l-1-2-3-2c-1-1-2-2-1-3v-3l4 4 4 2v-1l-8-7v1l8 7v-1l-2-1-2-1-4-3-1 4 2 2a10 10 0 0 1 3 3h-1v-1h-1l-2-1v6h-1a9 9 0 0 1 0-3v-2a1 1 0 0 0-1 0l-2 1-1 1v-1l1-1 3-2Z" />
        <path
            d="M710 481v-13h3l2-2-4 2h-1v2l-1 11h1Zm6-21-1 3v2l3 2 4 2 4 2 4-1 4-2h1l1 1h-2l-2 1-5 1v1l3 2h3c1 0 3-2 5-1v-1l-5 3v1c2 0 4 1 5 3h1l-4-2-2-1h-1l1 5-1-3-1-3-4-2v10h1l-1-3a51 51 0 0 0-1-8h-1l1 8c1 1 0 3 2 3v-5l-1-5 4 3v3l2 2c0 1 0 0 0 0v-5h-1l4 2 3 1-6-4h1l4-2v-1l-4 1h-3l-4-2v1l5-2 4-1a1 1 0 0 0 0-2c-1-1-2 1-3 1l-5 2h-4a86 86 0 0 1-7-4l-1-3v-3Z" />
        <path
            d="m715 467 4 2a60 60 0 0 1 7 3h-1l-5-3-3-1-2-2v1Zm-1 4v5l1 1 2 1 3 2 1-1-1-7-6-1c0-1 0 0 0 0l6 2v7l1-1a18 18 0 0 0-5-1l-1-1v-3l-1-3h-1 1Z" />
        <path
            d="m715 473 1 3v1h1l1 1h2v-2l-1-2v-1h-2l-2-1v1h4v4h-3v-1l-1-3c0-1 0 0 0 0Zm5-11 3-3 2-1 1 1 2 1 2 2-3 1-1 1-2 1-4-4v1l4 3 3-1a131 131 0 0 0 3-2l-2-2-1-1-1-1c-1-1-2 0-3 1l-3 2v1Z" />
        <path
            d="m722 462 3-2h1v1l2 1-2 1h-2c0 1 0 0 0 0a8 8 0 0 1-2-2l-1 1 2 1 1 1h1l1-1 2-1-1-2h-3l-2 1v1Zm-31 0 4-2v1h1l2 2v-1l-3 2-1-1h-1l-2-1c0-1 0 0 0 0l2 1 1 1h1l1-1h2v-1l-2-1v-1h-2l-1 1-2 1c-1 0 0 0 0 0Z" />
        <path
            d="M689 462a33 33 0 0 1 5-3h2l1 1 3 2-3-2-1-1-2-1-1 1h-1l-3 2v1Zm0 0 3 2 1 1 2 1 1-1a24 24 0 0 1 4-3l-5 3h-2l-1-1-3-2Zm10 12 6-3-1 4v2l-2 1-2 2h-1v-6c0-1 0-1 0 0v6h1l1-1 3-1v-1l1-1v-6l-6 4Z" />
        <path
            d="m701 478-1-2v-2h2l2-1-1 3-3 2s0 1 0 0l4-1v-4a8 8 0 0 1-3 0l-1 1v4h1Zm440-183c1-2 3 1 5 2v-7 6l1 1c1-1 2-3 4-3l-3 2-1 2v5a61 61 0 0 1 7-5s1 0 0 0l-1 1-3 4-3 2v5l-1 6 1 2 3 1 1 2h1c-1-2-2-3-4-3-2-1-1-3-1-4v-9l3-2 5-5c-1-2-2 0-3 0l-5 5c-1-2 0-4 1-5l3-4c-2-1-3 2-4 2v-5l-1-1h-1v7l1-1c-2 0-3-3-5-2v1Zm0 0v-1 1Z" />
        <path
            d="M1141 294v1l2 2c2 2 3 4 2 6h1l-9-6v2l4 3 3 2 1 4v9l-1 1a10 10 0 0 0-3 3c-1 0 0 0 0 0 1-2 3-3 5-3v-7l-1-5c0-2-2-3-3-4l-2-2-3-3v1a26 26 0 0 1 9 6c0-3 0-6-2-7l-3-3Zm10 15a24 24 0 0 1 5-3v6l-1 1-4 2h1l-1-3 1-4h-1v7h1l4-2 1-2v-5h-1l-5 2 1 1h-1Z" />
        <path
            d="m1152 310 4-2h-1v4l-3 1 1 1-1-5v5a10 10 0 0 1 3-2l1-1v-3l-4 1v1Zm0 11 5-4 3-1 1-1 1-2v-3l1-6v5l-1 5h1l3-2 1-1 1-6v-1a35 35 0 0 1 0 6l6-3c1 1-4 3-5 4 1 1 4 1 4 3v-1l-3-1a3 3 0 0 0-5 1l-2 2c-1 0 0 0 0 0a25 25 0 0 1 6 2l3 2v-1a177 177 0 0 0 0 1c0-2-2-2-3-3l-6-1 2-1 3-2 2 1 3 1h1c0-2-4-3-5-3l4-2c1-1 2-1 1-2l-6 3h1l-1-6-1 4v1l-1 2-4 3h1v-11a36 36 0 0 0-2 11l-2 2-2 1-5 3v1Z" />
        <path
            d="m1152 322 10-6h-1l-9 6Zm-35-15 3 1 3 2v-6l1 5c0 2 2 3 5 5v-1l-1-5v-5l1 7 1 4 4 4 6 3-5-4c-2-1-4-1-5-3v-6a36 36 0 0 0-2-6l-1 5 1 7 1-1-4-2-1-4-1-3h-1l1 6v-1l-5-3-2 1h1Z" />
        <path
            d="m1116 307 6 3c-1 0-6 1-4 3l5-1 4 2-6 2c-1 0-3 1-2 2l6-1 4-1 3 2 5 3 3 2 1 3h1l-2-4-3-2a325 325 0 0 0-8-4h-3a57 57 0 0 1-6 2v-1l2-1 5-1v-1l-5-2h-3l-1 1 1-1 1-1h2v-1l-5-3h-1Zm19 0a45 45 0 0 0 1 6l2 1 3 2h1v-1a38 38 0 0 0 0-6l-1-1-3-1h-3v-1 1s0-1 0 0h1a22 22 0 0 0 3 1l1 1h1l1 1v4l-1 1-3-1-1-1h-1l-1-6Z" />
        <path
            d="m1136 309 1 2v1l1 1a36 36 0 0 0 3 1v-4l-1-1a11 11 0 0 0-3-1v1a11 11 0 0 1 3 1v4h1a31 31 0 0 1-3-2l-1-2v-2s-1 0 0 0l-1 1Zm-17 21v-1l6 3 5 1 3-2 2-1a479 479 0 0 0 6-4l-10 6h-4l-3-1a72 72 0 0 0-5-2v1c0 1 1 0 0 0Z" />
        <path
            d="m1119 330 3 2 5 2v-1l-2 2h-3l-4-1-1 1 2 1 3 1c-2 1-6 2-5 4l6-3c0 2-2 5 0 6h1v-6c1-2 3-2 5-3h-1v10l2-5v-3l1-3 2-2 3-1a540 540 0 0 1 5-4l-6 3-3 2-2 1-1 5-1 7v-5l1-5h-1l-3 1-1 1v3l-1 3v-5l-6 3c-1-2 4-3 5-4l-4-2v-1l1 1 3 1h2a37 37 0 0 0 4-2v-1a25 25 0 0 0-6-2l-3-1Zm22-2 2 1 1 1 1 1v10l-1 2-3 2-4 5h1a41 41 0 0 0 5-4l2-2v6a29 29 0 0 1 1-6h-1l-3 2-5 4h1l4-4 2-2 1-1v-14l-4-2v1Z" />
        <path
            d="m1145 350-3 2c-1 1-2 1-1 2l2-1h1l1-1v1l1 4h1v-6l2 1 1 2 1-1v-1l-4-3-1-2 1-3 4 4c1 1 2 2 4 1l-8-7-1 1c4 1 6 4 9 6l-3-1-1-1-4-3h-1v4l2 2a11 11 0 0 1 3 2v1h-1l-1-1-2-1h-1l1 3v1l-1 2v-5a1 1 0 0 0-1 0l-2 1-1 1v-1l1-1 2-2c1 0 0 0 0 0Z" />
        <path
            d="M1147 342v-12h2l3-2h-1l-4 2h-1v13h1v-1Zm5-20v5l2 2 5 2 4 2 4-1a21 21 0 0 0 5-2v1h-1l-3 1-5 1v1l4 1 2 1c2 0 4-2 5-1v-1l-4 3 5 4v-1l-3-1-3-1v5h1l-2-4v-2l-4-2h-1l1 4v6-3a44 44 0 0 0-2-8c0-1 0 0 0 0l1 8 1 3h1v-5c-1-2-2-3-1-5h-1c2 1 4 1 5 3v3l1 2h1l-1-5 4 2 2 1v-1l-5-3a23 23 0 0 0 5-3l-4 1h-4l-3-2v1l5-2 4-1v-2c-1-1-3 1-3 1l-6 2h-3a51 51 0 0 1-7-4l-2-3a333 333 0 0 1 0-3Z" />
        <path
            d="M1151 328c1 2 3 2 5 3a56 56 0 0 1 6 3l-5-3-3-1-2-2h-1Zm-1 5 1 3v3l3 1 3 2v-8l-6-2-1 1 6 2v-1l1 7a18 18 0 0 0-4-2h-1l-1-1v-5h-1Z" />
        <path
            d="M1152 335v3l1 1 2 1 1-1v-4h-1l-1-1h-2v1h4v4h-2l-1-1-1-3Zm5-11 3-3 1-1a1 1 0 0 1 2 1l2 1 2 2a102 102 0 0 1-4 2h-2c-2 0-3-1-4-3h-1l5 4 3-1a81 81 0 0 0 3-2l-2-2-1-1-1-1h-3l-3 3v1Z" />
        <path
            d="m1159 324 3-2 1 1 1 1v-1l-1 1-1 1h-2a10 10 0 0 1-2-2v1l1 1 2 1h1l1-1a71 71 0 0 0 2-2l-2-1h-3l-2 1 1 1Zm-32 0 4-2h1l1 1 2 1-4 1h-1l-2-2v1l1 1 1 1h2l1-1 2-1-2-2h-1l-1-1-1 1h-1l-2 1v1Z" />
        <path
            d="M1126 324a35 35 0 0 1 5-4l1 1 2 1 2 2h1l-3-3-2-1h-2l-2 1-2 2v1Zm0 0 3 2 1 1h2a20 20 0 0 1 5-3c-2 0-4 1-5 3h-1l-1-1h-1l-3-2h-1 1Zm10 12 6-3-1-1v7h-1l-2 1-2 1v1-6h-1v5l1 1h1l1-1 2-1 1-1v-1l1-6h-1l-5 3v1Z" />
        <path
            d="M1137 340v-4h2l2-1h-1v3l-3 2c-1 0 0 1 0 0l3-2 1-3-1-1-2 1h-1v1c-1 0-1 0 0 0v4Zm-387-90 1-3h-1a10 10 0 0 1 3 1v3h1a7 7 0 0 1 0-3l-4-2v4h1-1Z" />
        <path
            d="m754 251 1 2h1v-1l1-2h-1v4l1 2a5 5 0 0 1 1-2v2l1 2c0 1 0 0 0 0l-1-2v-2a1 1 0 0 0-1 0v2-1l-1-1 1-2v-2l-1 1-1 2h1l-2-2c0-1-1 0 0 0Zm-4-1 1 1h2l1 2 1 1-3-1h-1a1 1 0 0 0 0 1h1l2 1h1l1 1h1l-1-1h-1l-2-1h-2 4l-1-2-1-1-1-1h-2c0-1 0 0 0 0Zm6 6h-2v1h3v1h1v1-1 1-1l-1-1h-2l-1-1h1l1 1v-1Z" />
        <path
            d="M751 248v2h1l1 1v-3h-2c0-1 0 0 0 0h1v1l1 1h-1l-1-1v-2 1Zm14-1v3l1-1h1v-3l-2 1v1l2-1v-1 2h-1v1h-1v1-3Z" />
        <path d="m765 251 2-1h1v-5h-1l1 1h-1l1 3h-1v1h-2v1Z" />
        <path
            d="m765 247 3-1v-1l-3 2h-1 1Zm-1 0v5l-1 1h1l-2-3v-1h-1v1l1 1v3c1 0 1 0 0 0v2l1-1v-1l-1-3v-2 1l1 3h1v-1l1-2v-3h-1Z" />
        <path
            d="m763 256 2-2 3-1-1-1h-1l-2 1 2-2-1-1v1l-1 2h3v-1l-1 1-2 1-1 2Zm-4 2h2l1-1-1-1v-3 1a8 8 0 0 0 1 2v-2l-1-1h-1l1 3v2h-2c-1 0 0 1 0 0Z" />
        <path d="M762 259v-2h1l1-1h1a1 1 0 0 0 0-1h-1l-1 1c-1 0-1 0 0 0h1-2v1l-1 1 1 1Z" />
        <path
            d="m761 259 1 1h2l2-1v-1h1-1l-1 2h2-2l2-2v-1l-1 1-1 1-1 1h-2 1l-1-2-1 1Zm6 1c0-1 0 0 0 0h1v-1l1-1a36 36 0 0 1 1-1l-2 3h3v-1l-3 1 3-3-1-1-1 1-1 1v1l-1 1v-1 1Zm4 0 2-1h3v1h1l-2 1v1h-1l-1-1-2-1v1l3 1h1l1-1 1-1v-1h-1l-1-1h-1l-1 1h-2v1Zm0 0-3 1 3 2h-1l-1-1-1-1h-3l2 1c-1 1-1-1-2-1h-2l-1 1-1 1 1 1 2 1h2-3l1 1 1 1h4l-1 1-4-1 4 1h1v-1l-1-1h-4l-1-1 2 1 1-1-1-1h-2l-1-1v-1l1-1a3 3 0 0 1 2 1h2l-1-1h1l1 1 2 1h1l-1-1-1-1h2v-1Z" />
        <path
            d="M759 263h2-1l2 2-1 2v1h1l1-2h-1l1 1v4h1v-3l1 2 1 2v2l3 1v-1l-2-1h-1v-3l-2-2-1 3 1-3v-1l-1-1h-1v2-1h-1l1 1v-4l-1-1h-2Z" />
        <path
            d="m764 267 2 2 1 2 2 1v3l1-3-1-1-2-1-1-1v-1l-1-1h-1Zm-21-5 2-2 3 1h4l-1-1-2-2v1h2l1 1 3 1v-1l-1-1s-1 0 0 0v1h3l1-1c1 0 0-1 0 0l-1 1h-1l-2-1h-1v1l2 1v-1h-3l-1-1-2-1v1l1 1 1 1h1-3l-2-1h-2l-2 1s0 1 0 0v1Z" />
        <path
            d="m743 262 3 1h1c1-1 3-2 5-1v-1l-2 2v2l2-2 1-1h2v-1l-2 2v1l1-1h-1l2-2-2 1-2 1v1h-1c0 1 0 1 0 0v-1l2-1v-1l-6 2h1l-4-2v1Z" />
        <path
            d="m754 264 2-2 1-1v1l1 1v1l-2 1-1 1h2v-1l-1 2h-2l-2 1 1 1h1l2-1-4 4-1 1 1 3 2-1 2-2-1-2 2-3h-1l-1 2v3l-1 1-2 2v-3l2-2 2-3h-3v1-1h1l2-1 1-1v-1l-2 1 2-1 1-1 1-1-1-1-1-1h-1l-3 3h1Zm0 0v-1 1Z" />
        <path
            d="m757 268 1 4 1-1-1-3v-2 2a1 1 0 0 0 2 0l-1-2v-3c1 0 0 0 0 0l-1 2 1 1v2-1l-1-1c0-1 0-1 0 0l-1 1v1l1 2v2l-1-4s-1 0 0 0Zm-12-6v-1h3-1v1h-2v-1l-1 1h2v1l1-1 1-1a5 5 0 0 1-1-1h-2l-1 1 1 1Zm7 11h1l1-1h1l-1-1v3h-1v-1h-1v1l1 1 1-1h1v-3a5 5 0 0 0-2 1l-1 1h1-1Zm20-13h1l1-1v1h1a4 4 0 0 0-1 1l-2-1 1 1h2l1-1-1-1h-2l-1 1Zm-6 11v2h1l1 1h1v-2h-1v-1h-2l1 1h1v2-1h-1v-2h-1Zm6 16s1 0 0 0Zm0 0 1 1v-1 2h1l-1-1v-1 1-1h-1Z" />
        <path
            d="M772 287v1h1-1 1-1 1l-1-1Zm1 1v1-1Zm-1-1Zm3 0Zm0 0v-1 1Zm0 0v-1l-1 1h1Zm-1 0v1-1a3 3 0 0 0 0 1v-1 1-1Zm0 1h1-1l1-1c-1 0 0 0 0 0h-1v1h1-1Zm-1 1h1v-1 1h-1Zm1 0v-1 1Zm0 0h1a2 2 0 0 0-1 0Zm1 0v-1 1h1-1v-1 1Zm1 0h1-1 1-1Zm0 0h-1l1 1h-1v-1 1-1h-1v1h1-1 1-1 1-1 1-1v-1h1c0 1 0 1 0 0l1 1v-1h-1 1Zm-3 1h1c0 1 0 0 0 0v1h1v1-1h-1c0-1 0 0 0 0v-1 1-1h-1Z" />
        <path d="m774 290 1 1v1-2h-1Zm-3-1h2s-1 0 0 0h-1 1-2Zm0 0v1l1-1v1-1h1l-1 1h1v-1h-1v1-1l-1 1v-1Z" />
        <path d="M773 290v-1 1l-1 1h1-1v1h1v-1c0-1 0-1 0 0v1h-1v-1h1v-1 1-1h1l-1-1v1c-1 0 0 0 0 0Zm-1 0Z" />
        <path
            d="M773 291v-1h1-1 1-1v1Zm-2-2v1l1-1h-1v1-1Zm1 2h1-1v1-1 1l1-1h-1Zm4-2Zm-1 2v1-1Zm-288 5h1l1 1h1l2-1-1 1v1l-1 3h1l1-1a7 7 0 0 1 2-1h1l-1 1-2 1-2 1v4h1l2-2 2-2h1v1a35 35 0 0 1 0 6h1a37 37 0 0 0 0-7l-1-1-1 1-2 1-3 2h1v-3l1-1 3-2-1-1-2 1-1 1v1c-1-2 0-3 2-4v-1a1 1 0 0 0-1-1l-1 2-2-1h-2Z" />
        <path
            d="M487 296c2 1 3 3 2 4h1l-2-1-2-1v1l2 2c1 1 2 3 1 4h1a39 39 0 0 0-6-3v7-7 1a39 39 0 0 1 6 3c0-2 0-4-2-5l-1-1a7 7 0 0 1-1-1c0-1 0-1 0 0h1l1 1 1 1h1c0-2-1-4-3-5Zm10 13 1-1 1-1 1-1v-1a25 25 0 0 1 0-3v4c2 0 3-1 3-2v-2h1v1l-1 1a4 4 0 0 0 3 2h-2l-3 1v1a11 11 0 0 1 3 1v1l-1-1h-1l-1-1h-2l-2 1 1 1 1-2h2l1 1 1 1h2v-1h-1l-3-2 3-1h3a1 1 0 0 0-1-1h-1l-1-1v-2h-1v1l-1 1-2 2h1v-4h-1l-1 4v1h-1l-1 1v1Zm-18 4 1-1h1l3-2v-1h-1l-2-1h-2l-2 1h-2 1l3-2c-2-2-4-1-6 0h6a17 17 0 0 0-4 2 1 1 0 0 0 0 1h1l3-1 1-1 1 1 2 1h-1l-1 1-2 1-1 1h1Z" />
        <path
            d="m473 307 3-1v-3s0-1 0 0l1 2 2 2 1-1v-4 5l1 1 3 1-2-2h-1v-1l-1-3v-1a1 1 0 0 0-1 0v5-1h-1l-1-1v-2l-1-1a1 1 0 0 0-1 0l1 2-1 2-2 1Zm12-3v4l1 2a9 9 0 0 0 2 1h2v-3l-1-2-1-1-3-1 3 2 1 1v3l-1 1-1-1a8 8 0 0 1-2-1v-5Zm6 6v-3a17 17 0 0 1 5-4h-1a22 22 0 0 1 1 6h-1l-1 1-2 1h1l-2-1c-1 0-1 0 0 0l1 2h1a23 23 0 0 1 3-2v-1a23 23 0 0 0 0-6h-1l-3 3-2 2v2h1Z" />
        <path
            d="m493 313 2-2h2l2 1 2 2v-1l-2 1-2 2-3-1-1-1v-1l-1-1v2l1 1 3 1 3-1 3-1v-1l-3-2-2-1h-1l-1 1-2 1v1Zm-6-1 1 2v-1l-3 2c-1 0 0 1 0 0l3-1v-2h-1Z" />
        <path
            d="m480 313 4-2h2l1 1h1a6 6 0 0 0-3-2l-1 1-4 2c-1 0-1 0 0 0Zm0 0 2 1 3 1-3-1-2-1s-1 0 0 0Zm5 4 2-2h3c0 1 0 0 0 0l-2-1-1 1-2 1v1Zm13-8 4 4h1l-1 1-1 1-3 1v1l1 1 1-1-2-1v1l3-2c1 0 3-1 2-2l-1-1-1-1-3-2s-1 0 0 0Z" />
        <path
            d="m500 318 2-1 2-1-1 1-2 1-1 1h5c1 0 1 0 0 0l-1 1h-1v4l-1-4-2-1-1 5h1a40 40 0 0 1-1-5l-2-2h-1v3l-1 3-1-1a27 27 0 0 1-3-2l-1 1 1 3 1 2h1l1 1-2-1h-2l1 2 1 1 1 1h-1l-1-1h-1l-1 1h-1l1-1 1-4h-1l-2 2v-1l2-1 1-1v-3c0-1 0-1 0 0v2l-3 2-1 2v1l4-2-1-1v2l-1 2-1 2h2l1-1c1-1 1 1 2 1l1-1-1-1-1-2v-1h-1l2 1 2 1 1-1h-1l-2-2h-1v-4h-1l4 2 2 1v-3l1-4-1 1h2l1 2a43 43 0 0 0 0 4c2-1 1-4 1-5l2 2 1 3 1-1v-2l1-1c1 0 2-1 1-2h-5v1c0-1 4-2 3-3h-1l-3 1v1Z" />
        <path d="m481 319 3-2v7l1-1 2-1 3-1v-1a29 29 0 0 0-4 2l-2 1v-6l-3 2Z" />
        <path
            d="M485 317v5s0 1 0 0l4-2 1-1v-1a125 125 0 0 0-1-3v5l-4 2v-5Zm6-2h1v-1 1h-1Zm0 0-1 3v1l1 1 2 2h1l1 1v-1 1-1l-1-1a8 8 0 0 1-3-2v-4Zm4 2 1 1v1l-1 3c0 1 0 1 0 0a13 13 0 0 0 1-5h-1Z" />
        <path
            d="m492 315 2 1 1 1h1v-1l-2-1-2-1v1Zm-16 1h1a8 8 0 0 1 1 1l1 1h3l1-1 1-1h-1 1-1l-1 1-1 1-1-1a12 12 0 0 0-3-1l-1-1v1Z" />
        <path d="m478 313 3 2 2 1h1l-3-2a54 54 0 0 0-2-1h-1Zm-4 7h4l2-1v-1l-2 1h-3l-1 1Z" />
        <path d="m476 316 2 2 2 1v-1h-2l-2-2Z" />
        <path d="m478 321 2-1v4l1-1v-4c0-1 0-1 0 0v2l-1 1v2-5l-2 2Z" />
        <path
            d="m474 320 2 1h1v1l-1 1v1h1c0 1 0 1 0 0h1l1-3h-1a28 28 0 0 1-1 3v-4h-3ZM558 1l1 1h2c0-1 0 0 0 0a4 4 0 0 0-1 1v2a27 27 0 0 1 2-1h1a4 4 0 0 1-2 1l-1 1v2l2-1 2-1v4h1V7l-1-1V5l-1 1h-1l-2 2V6h1V5l2-1V3l-3 2 1-3 1-1h-1l-1 1-1-1-2 1h1V1Z" />
        <path
            d="m558 2 1 3V4l-1-1h-1l-1 1 3 1v3a26 26 0 0 0-4-2v5h1V6h-1a27 27 0 0 1 4 2c1-1 1-3-1-3l-1-1a5 5 0 0 1 0-1l1 1 1 1h1l-2-4-1 1h1Zm6 9 1-1 1-1h1V6v3l2-2V6c0-1 0 0 0 0v1a3 3 0 0 0 2 1h-1l-3 1v1l2 1h1l-2-1h-2l-1 1 1-1h1l1 1h2l-1-1-2-1v1l2-1h2a1 1 0 0 0 0-1h-1l-1-1 1-1-1-1v1l-1 1-1 1v1-3h-1a13 13 0 0 0 0 3h-1l-1 1v1Zm-12 2h1l2-1v-1l-2-1h-1l-2 1h-1l1-1h2V9h-4c-1 0 0 1 0 0h4a12 12 0 0 0-3 2h1l2-1h1l1 1h1l-1 1h-1l-1 1-1 1 1-1Z" />
        <path
            d="M548 9h1l1-1V6v2l2 1V6h1v4l2 1 1-1-2-1h-1V5l-1 1v3l-1-1V7l-1-1V5a1 1 0 0 0-1 1v2l-2 1h1Zm8-2v4a6 6 0 0 0 2 1h2v-2l-1-2h-1l-2-1 2 1 1 1v2s0 1 0 0v1l-1-1a6 6 0 0 1-2 0v-1l1-3h-1Zm4 4V9h1l3-2h-1a16 16 0 0 1 0 4l-2 1h1l-2-1v1h1a15 15 0 0 1 3-1V6h-1l-2 2-1 1v2c0 1 0 1 0 0Zm2 2 1-1h2l1 1 2 1v-1l-2 1-2 1-1-1h-1v-1h-1v1l1 1 2 1 2-1 2-1v-1l-2-1-1-1h-1l-1 1-2 1h1Zm-4 0v1l-2 1 2-1v-1s0-1 0 0Z" />
        <path d="m552 14 3-2h1l2 1v-1h-1l-1-1-1 1-3 1v1Z" />
        <path
            d="m552 14 2 1h2l-2-1-2-1v1Zm4 2 2-1h2l-1-1h-1l-2 2Zm9-5 3 2v1c1 0 0 0 0 0l-1 1-2 1 1 1h1l-2-1 3-1 1-2h-1l-1-1-2-1c0-1 0 0 0 0Z" />
        <path
            d="m567 17 1-1h1-1l-1 1 2 1h2-1l-1 1v2l-1-2-1-1h-1v3h1a34 34 0 0 1-1-3l-2-2v3l-1 2v-1h-1l-2-1v2l1 1 1 1c0 1 0 1 0 0h-1l-1-1v2l1 1s1 1 0 0h-1s0-1 0 0h-1l-1 1v-1h1l1-3h-1l-2 1h1l1-1 1-1v-2h-1v2l-2 1-1 2h1l2-2v1l-1 1v2h1v-1l2 1a1 1 0 0 0 1 0l-1-2h-1v-2 1h1l1 1h1v-1l-2-1v-1l-1-2 2 1 2 1v-4h1l1 1v3c2 0 1-2 1-3h-1l2 1 1 2 1-1-1-1h1c1-1 2-1 1-2h-4c1 0 4-1 3-2h-1l-3 2h1Z" />
        <path d="m554 18 1-1v3a1 1 0 0 0 1 1 28 28 0 0 1 4-2h-1a20 20 0 0 0-2 1h-1s0 1 0 0v-4h-1l-2 1 1 1Z" />
        <path d="M556 16v4l3-2h1v-3h-1v3l-3 2v-4Zm4-1h1v-1 1h-1Zm0 0v3l1 1 1 1h1c1 0 1 0 0 0l-1-1a6 6 0 0 1-2-1v-3Z" />
        <path
            d="M563 16v1a8 8 0 0 1 0 3h1a9 9 0 0 0 0-4h-1Zm-2-1h1l1 1h1l-1-1-2-1v1Zm-11 1h1a8 8 0 0 1 1 1h2l1-1v-1 1h-1l-1 1-1-1a8 8 0 0 0-2-1l-1 1h1Z" />
        <path d="m551 14 2 1 2 1v-1l-2-1h-1v-1l-1 1Zm-2 4h4l-1-1a28 28 0 0 1-1 1h-3 1Z" />
        <path d="M550 16a4 4 0 0 0 2 1v1l1-1h-2l-1-1Zm1 3 2-1h-1v3h1v-1l1-2-1-1v4-3l-2 1Z" />
        <path d="M548 19h2v3l1-1 1-2h-1a27 27 0 0 1-1 2l1-1v-1l-1-1a54 54 0 0 0-2 0v1Z" />
    </g>
</svg>